<?xml version="1.0" encoding="UTF-8"?>
<svg id="_圖層_1" data-name="圖層_1" xmlns="http://www.w3.org/2000/svg" version="1.1" xmlns:xlink="http://www.w3.org/1999/xlink" viewBox="0 0 1536 1536">
  <!-- Generator: Adobe Illustrator 30.3.0, SVG Export Plug-In . SVG Version: 2.1.3 Build 182)  -->
  <defs>
    <style>
      .st0 {
        fill: #393c41;
      }

      .st1 {
        fill: #d3dae0;
      }

      .st2 {
        fill: #a9b1bf;
      }

      .st3 {
        fill: #50565d;
      }

      .st4 {
        fill: #717884;
      }

      .st5 {
        fill: #707682;
      }

      .st6 {
        fill: #bcc6d0;
      }

      .st7 {
        fill: #a3a9ae;
      }

      .st8 {
        fill: #b0bbca;
      }

      .st9 {
        fill: #f1f6f9;
      }

      .st10 {
        fill: #a4b0be;
      }

      .st11 {
        fill: #595e66;
      }

      .st12 {
        fill: #282c2f;
      }

      .st13 {
        fill: url(#_未命名漸層_9);
      }

      .st14 {
        fill: #7a7f87;
      }

      .st15 {
        fill: #bac6d3;
      }

      .st16 {
        fill: #c9d0db;
      }

      .st17 {
        fill: #838f9c;
      }

      .st18 {
        fill: #4e5660;
      }

      .st19 {
        fill: #262b2e;
      }

      .st20 {
        fill: #a0a8b4;
      }

      .st21 {
        fill: #6f767e;
      }

      .st22 {
        fill: #161d26;
      }

      .st23 {
        fill: #dde6ef;
      }

      .st24 {
        fill: #2e3237;
      }

      .st25 {
        fill: #676d76;
      }

      .st26 {
        fill: #7e8490;
      }

      .st27 {
        fill: #6f7984;
      }

      .st28 {
        fill: #a5b0c1;
      }

      .st29 {
        fill: #979fab;
      }

      .st30 {
        fill: #ced3dd;
      }

      .st31 {
        fill: #2a2f32;
      }

      .st32 {
        fill: #a8b4c6;
      }

      .st33 {
        fill: #73777d;
      }

      .st34 {
        fill: #9ba2ae;
      }

      .st35 {
        fill: #6d7683;
      }

      .st36 {
        fill: url(#_未命名漸層_8);
      }

      .st37 {
        fill: #97a0af;
      }

      .st38 {
        fill: #212326;
      }

      .st39 {
        fill: #686d76;
      }

      .st40 {
        fill: #c3c7cd;
      }

      .st41 {
        fill: #32363c;
      }

      .st42 {
        fill: #dee9f1;
      }

      .st43 {
        fill: #626873;
      }

      .st44 {
        fill: #aeb5c1;
      }

      .st45 {
        fill: #484a4e;
      }

      .st46 {
        fill: #868c98;
      }

      .st47 {
        fill: #38404a;
      }

      .st48 {
        fill: #c9d5e6;
      }

      .st49 {
        fill: #78808b;
      }

      .st50 {
        fill: #818991;
      }

      .st51 {
        fill: #c0c5ca;
      }

      .st52 {
        fill: #e9f0f6;
      }

      .st53 {
        fill: #9ba1ab;
      }

      .st54 {
        fill: #43474e;
      }

      .st55 {
        fill: #c3ccd6;
      }

      .st56 {
        fill: #e7eef2;
      }

      .st57 {
        fill: #363a3e;
      }

      .st58 {
        fill: #0c0f14;
      }

      .st59 {
        fill: #b4bac5;
      }

      .st60 {
        fill: #141b27;
      }

      .st61 {
        fill: #7a8491;
      }

      .st62 {
        fill: #505964;
      }

      .st63 {
        fill: #5b6470;
      }

      .st64 {
        fill: #51565b;
      }

      .st65 {
        fill: #45484e;
      }

      .st66 {
        fill: #82868a;
      }

      .st67 {
        fill: #7b8087;
      }

      .st68 {
        fill: #545c65;
      }

      .st69 {
        fill: #818b97;
      }

      .st70 {
        fill: #6e7885;
      }

      .st71 {
        fill: #575c65;
      }

      .st72 {
        fill: #41474e;
      }

      .st73 {
        fill: #444950;
      }

      .st74 {
        fill: #c6c9ce;
      }

      .st75 {
        fill: #707683;
      }

      .st76 {
        fill: #9098a5;
      }

      .st77 {
        fill: #3d4045;
      }

      .st78 {
        fill: #c4cbd4;
      }

      .st79 {
        fill: #44494f;
      }

      .st80 {
        fill: #8893a2;
      }

      .st81 {
        fill: #26292e;
      }

      .st82 {
        fill: #6d757e;
      }

      .st83 {
        fill: #474d53;
      }

      .st84 {
        fill: #949ead;
      }

      .st85 {
        fill: #292d32;
      }

      .st86 {
        fill: #0f151f;
      }

      .st87 {
        fill: #616674;
      }

      .st88 {
        fill: #717a86;
      }

      .st89 {
        fill: #b1b8c5;
      }

      .st90 {
        fill: #abb2be;
      }

      .st91 {
        fill: #c0c4c7;
      }

      .st92 {
        fill: #53555a;
      }

      .st93 {
        fill: #abb2bb;
      }

      .st94 {
        fill: #0c0f15;
      }

      .st95 {
        fill: #848e9a;
      }

      .st96 {
        fill: #626870;
      }

      .st97 {
        fill: #24282c;
      }

      .st98 {
        fill: #383c40;
      }

      .st99 {
        fill: #7e868f;
      }

      .st100 {
        fill: #eff6f8;
      }

      .st101 {
        fill: #9ca6b3;
      }

      .st102 {
        fill: #1f262e;
      }

      .st103 {
        fill: #bfc3ca;
      }

      .st104 {
        fill: #9ca5b1;
      }

      .st105 {
        fill: #6c757f;
      }

      .st106 {
        fill: #79818e;
      }

      .st107 {
        fill: #272d32;
      }

      .st108 {
        fill: #50555d;
      }

      .st109 {
        fill: #ebf2f8;
      }

      .st110 {
        fill: #383c42;
      }

      .st111 {
        fill: #111620;
      }

      .st112 {
        fill: #bbc8d8;
      }

      .st113 {
        fill: #dbe3ea;
      }

      .st114 {
        fill: #5c626a;
      }

      .st115 {
        fill: #d6dae0;
      }
    </style>
    <linearGradient id="_未命名漸層_9" data-name="未命名漸層 9" x1="659.52" y1="1822.38" x2="1139.64" y2="2149.66" gradientTransform="translate(-351 -801) scale(.75)" gradientUnits="userSpaceOnUse">
      <stop offset="0" stop-color="#596069"/>
      <stop offset=".43" stop-color="#35393e"/>
      <stop offset="1" stop-color="#363a42"/>
    </linearGradient>
    <linearGradient id="_未命名漸層_8" data-name="未命名漸層 8" x1="1636.41" y1="1866.4" x2="1716.38" y2="1951.21" gradientTransform="translate(-351 -801) scale(.75)" gradientUnits="userSpaceOnUse">
      <stop offset="0" stop-color="#4c5058"/>
      <stop offset=".82" stop-color="#41464d"/>
      <stop offset="1" stop-color="#33383c"/>
    </linearGradient>
  </defs>
  <path class="st50" d="M151.49,1120.51c1.44-1.62-.27,1.69.64,2.43-7.33.31-1.79-176.34-2.02-174.93,1.02,20.63-.61,149.79,1.39,172.5Z"/>
  <path class="st1" d="M1276.53,372.75c4.62,2.46,15.14,1.23,18.52,5.5-.08,2.73-21.22-7.6-23.28.77,1.75.55,6.32.45,5.06,3.2-13.55-.88-9.38-4.08-17.05-7.15-.66,1.01-2.25,3.71-2.53.93-3.09-9.57,14.44-2.46,19.29-3.24Z"/>
  <path class="st7" d="M1385.67,797.96c-1.76-44.32-6.79-99.79-.43-142.46-.09,39.63.54,102.7.43,142.46Z"/>
  <path class="st51" d="M1385.99,872.25c-2.14-14.7-.02-57.74-.74-72.71,1.99-4.93.13,73.63.74,72.71Z"/>
  <path class="st91" d="M1385.25,655.5c-5.11-6.05.5-23.96-.09-30,1.65.34,1.24,29.36.09,30Z"/>
  <path class="st74" d="M609.81,615.05c.42-.47-1.03-17.96.7-17.3-.34.44.77,17.85-.7,17.3Z"/>
  <path class="st80" d="M1378.51,961.57c-4.62-.19.54-6.38.82-9.04,0,0-.82,9.04-.82,9.04Z"/>
  <path class="st112" d="M1280.23,373.43c-.61,1.66-3.49.91-3.7-.69,0,0,3.7.69,3.7.69Z"/>
  <path class="st17" d="M303.82,1170.75h-5.33c1.51-1.29,3.74-1.09,5.33,0Z"/>
  <path class="st112" d="M1294.48,377.23c-1.46.33-3.21.08-3.74-1.44,1.37.11,2.8.48,3.74,1.44Z"/>
  <g>
    <path class="st96" d="M296.27,1028.2l-.04,141.09c-3.42.21-2.11-147.58.04-141.09Z"/>
    <path class="st18" d="M278.9,1166.24c.78-1.58-2.18-142.49.14-143.23,0,0-.14,143.23-.14,143.23Z"/>
    <path class="st103" d="M277.48,912c-1.31-.7-1.37-25.58.03-26.24,0,0-.03,26.24-.03,26.24Z"/>
    <g>
      <path class="st90" d="M153.93,416.96c16.17,7.52,4.35,50.94,7.39,72.33-5.34,203.68,3.45,437.14-3.05,629.07-10.02-48.4,0-113.9-4.4-167.38-2.35,55.6,1.57,114.77-2.38,169.54.25-118.05-10.34-592.95,2.43-703.55Z"/>
      <path class="st9" d="M473.92,391.58c2.47,3.99-14.95-.1-5.39,4.94,38.2,17.68,88.56,55.24,98.38,90.07-93.5-142.67-303.82-128.65-417.62-61.29-2.6-14.88,5.65-14.83,16.37-20.39,15.57-7.56,32.22-14.47,48.5-20.35,83.6-28.48,178.63-28.42,259.76,7.01Z"/>
      <path class="st70" d="M610.36,593.56c3.74,71.85-30.3,146.44-85.85,194.19-37.48,33.01-81.24,47.95-127.96,51.37,123.84-28.05,219.98-128.58,203.32-271.99,8.97,2.69,6.54,19.2,10.48,26.43Z"/>
      <path class="st26" d="M277.57,923.15c-.76,63.34,2.05,178.2,1.33,243.09-1.22,2.39-4.86.96-6.72.3-10.75-83.64-2.2-193.86-3-286.04,5.97-5.04.54,57.14,2.34,58.21,2.57,1.65.71,11.83,2.68,3.47.96-5.15-3.28-22.43,3.37-19.02Z"/>
      <path class="st48" d="M473.92,391.58c20.34,9.75,44.2,19.74,60.22,35.84,12.8,17.75,31.38,34.72,41.09,54.2-5.54,3.24-3.71-10.12-8.21,1.57-10.98-14.38-21.28-31.01-35.75-42.55-4.37-14.92-91.65-50.97-57.34-49.06Z"/>
      <path class="st4" d="M462.75,825.05c-54.5,25.34-120.29,19.53-179.17,21.15-13.59,1.92-1.63,72.86-8.11,83.37,1.91,4.66-2.28,29.95-3.5,15.73-2-1.36-3.44-2.32.43-3.66-5.84-.08.18-59.64-3.2-61.13-6.96-40.32,1.05-52.64,38.16-41.56-9.25,5.48-24.76-.86-35.94,1.43-.86,1.4,1.4,7.08,2.93,8.15-2.81-9.9,65.6-5.81,67.48-4.33,16.26-1.41,32.68-4.23,48.08-6.67-5.18-3.72,10.61-4.67,11.34-3.1-.64,2.13-5.9.11-5.15,3.31,6.03-1.11,18.35-2.19,24.5-2.3,2.96-1.59,4.7-4.23,8.14-2.55,1.6,1.35,8.27.9,8.83-.88-.65-6.01,4.96.57,6.68-4.33.47,2.72,3.52,3.48,3.05.27,4.45-.82,10.57-3.55,15.46-2.89Z"/>
      <path class="st68" d="M158.27,1118.36c17.37,16,123.1,38.36,113.92,48.18-8.09,2.86-152.89-46.11-113.92-48.18Z"/>
      <path class="st84" d="M600.86,537.7c2.26,2.54,13.8,66.65,7.14,53.46-2.1-7.82-1.62-16.34-7.78-23.2,0,0,.57,14.77.57,14.77-4.17-22.47-12.27-51.71-19.51-74.11,13.61-3.33,12.44,21.47,19.58,29.09Z"/>
      <path class="st32" d="M575.22,481.62c12.38,15.82,18.61,37.35,25.64,56.08-2.39,1.95-2.36-6.47-5.35-9.72-1.75-1.9-4.11-3.61-3.27-6.44.65-4.28-1.78-8.69-5.32-10.75-6.02-1.72-2.98-3.1-6.02.96,2.37,3.96-28.39-48.1-5.68-30.12Z"/>
      <path class="st40" d="M278.33,1016.27c-2.63-1-2.2-52.94-.82-54.77.12,3.18-.38,53.13.82,54.77Z"/>
      <path class="st29" d="M589.16,680.92c-42.98,126.51-169.6,168.95-281.56,156.84,0,0-38.37,0-38.37,0-.6,25.11.28,232.08-.15,262.36-1.28,60.37,14.22,67.65-54.11,43.75-17.62-7.72-42.54-14.41-54.46-25.69,33.45,17.69,68.94,30.59,106.27,38.31.03-104.68-.72-214.05.24-318.77,127.3,5.42,273.13-21.73,322.13-156.81Z"/>
      <path class="st16" d="M158.8,419.92c-.5,185.82,1.5,431.62-1.19,614.43,2.32-195.01-7.14-437.96,1.19-614.43Z"/>
      <path class="st76" d="M158.27,1118.36c-13.91,18.56-6.56-173.13-3.08-173.85,3.33,39.08-2.92,137.69,3.08,173.85Z"/>
      <path class="st48" d="M581.95,511.65c6.23,7.48,25.26,83.68,16.51,72.33-5.47-16.32-3.98-35.2-12.25-51.59-1.4-8.79-25.88-53.39-15.33-42.74,2.68,4.86,9.35,16.9,11.07,21.99Z"/>
      <path class="st89" d="M589.16,680.92c-8.67,4.84,7.11-25.84,4.26-30.23,7.2-17.98,1.88-47.05,5.04-66.71,7.51,15.37,2.05,64.44-9.3,96.94Z"/>
      <path class="st87" d="M307.35,838.94c7.26-.21,55.26-.46,34.47,5.25-6.65,3.49-68.26-7.37-66.48,7.44-20.79-21.82,22.44-9.43,32.01-12.7Z"/>
      <path class="st70" d="M389.22,836.33c13.63,3-9.48,1.05-10.7,5.6-10.86,1.04-25.62,2.82-36.7,2.26,19.15-4.32-26.48-3.78-31-4.62-17.76-2.79,72.29-1.92,78.4-3.24Z"/>
      <path class="st13" d="M264.75,609.75c5,20.91-7.31,117.21,8.14,118.17,56.93-17.15,140.44,11.68,185.34-41.08-1.74-2.81,4.65-7.18,7.4-2.08,2.92-2.89,5.62-3.27,8.1-1.15,2.89,3.94,4.01,3.62,3.34-.95-3.55-5.37-1.48-28.42,3.71-23.64,2.24,4.34,3.01,2.25,2.32-6.27.81-6.09,6.9-10.2,2.29-15.28-.68,4.19-7.86,29.02-7.86,14.82,17.09-60.61-2.22-94.44-33.41-130.3,25.24,12.28,33.07,40.96,43.61,63.19,6.67-1.67,3.36,8.02,3.44,11.33,2.4-10.47,9.38.21,9.75,5.56,7.71-4.1,16.2-4.65,18.68,5.65-.18-7.63,2.13-12.17,5.8-2.44,4.41,2.79,6.33,4.05,2.84,8.64,1.22,2.9,1.93,1,3.86-.31,8.98,5.44,4.4-7.98,16.64-11.83,5.17-.82,6.92,6.02.32,7.5,3.3,1.6,17.03,9.51,13.81.55-5.1,13.73-11.65-10.49,3.19-5.02-2.51-3.83,2.21-16.95,6.76-11.1,0,0,3.92,1.64,3.92,1.64,4.32,9.11,2.66-5.84,7.58,1.33,3.34,15.56.9-4.37,2.51-6.36,1.19-.65,1.87-.83,3.13,0,2.6,8.17,3.97,10.04,4.12,5.64,1-20.69-.87-17.39-1.93-32.76-2.31-3.31-4.24-26.14.37-14.02,5.53,23.49,11.54,78.44,3.08,89.25-19.99,161.72-178.72,210.79-326.67,196.53-2.48,2.28-4.29,1.02-5.37-1.77-12.26,8.75.1,3.86-2.04,12.12-6.48-1.61-1.34,1.35,1.08,3.27,3.64,17.76-8.94,4.87-4.34,17.45,4.13-2.56,4.1,4.25,1.41,5.38,1.5,5.33,2.51,5.8-1.89,8.73,0,1.57,4.94,1.93,3.16,7.96-5.93-2.01-6.36-6.69-8.62-6.92-6.17,1.48-9.38,6.04-11.05-2.76,16.19,4.59,3.13-2.19-1.81-4.04-14.37-13.27-2.05,4.04-1.83,9.51-3.49,2.75-4.79-3.71-5.46-5.9-7.26.43-1.04,4.64-5.83,7.34,9.3,11.74-13.42,7.67-.69.76-.23-.95-2.64.13-4.65-1.09-6.15-7.42,14.78-4.56,4.3-10.27,1.26-3.19-1.17-3.11-3.24-3.76,2.55-6.13-2.49-7.12-2.9-10.89.71-5.06-6.91-6.36-3.62-9.3-1.12-1.97-7.63-3.78-4.93.62,2.37,4,7.13,6.21,4.7,11.3,2.7,2.54,3.97,8.29,1.81,10.77.16,1.48,4.54,2.84.74,4.11-6.77-1.02-6.22-5.16-6.12-11.41-5.42-5.35-9.62-15.62-8.9-.82-7.37-7.08-9.13-5.73-11.49-17.26-4.77-.95.88,13.15,1.62,15.15-5.54,1.97-8.54-4.42-10.08-.85-8.62,4.74-3.3,6.05,1.65,11.35,2.5,14.41,6.92,4.17,6.87,10.7-4.63,6-11.99-3.97-9.15-4.61,5.18-.77,1.04-5.67-2.92-3.52-4.23,1.93-1.5,7.79-2.47,9-2.85,4.39-10.66-5.35-10.85-.99,2.73,2.42,1.14,4.77,5.14,6.81-2.8,3.86.53,5.2,2.99,6.9.79,2.53-.63,5.26,3.47,5.63-.91,5.17-5.29-3.17-8.05-.67-2.38-5.92-6.5-.44-1.73,2.08-8.14,4.65-2.9-22.98-5.42-28.04.13-83.92-2.43-170.77-1.18-254.59.13-37.57-2.24-96.92-.03-132.31,1.85,9.23-6.06,86.16,11.37,52.63,6.11.33,8.9-10.43,14.7-8.29-2.09,6.01-14.76,13.22-17.06,20.42.01,2.93,10.6-10.3,12.82-4.01-.12,2.95-4.81,3.74-3.38,4.93,4.01,1.82,6.75-2.58,9.73,2.46,6.33,4.8,6.02,1.82,5.84,10.7,9.17-2.72,3.7,2.43,1.5,8.05,9.34-1.14,15.76-8.95,7.15,5.78,2.93-2.23,15.84-12.36,15.83-6.47-.12,2.38-5.82,1.04-5.93,3.85,6.1,1.41-.64,2.75-1.54,7.66,3.55-.38,5.34-3.03,7.57-5.19,7.65.84-12.86,13.68-.52,10.52.81,6.6,9.13-3.74,4.21,6.72,2.7-1.44,7.89-6.52,10.15-7.91,3.28.59,2.76,4.37-.68,4.17.45,2.44-5.59,7.87-.88,7.64,1.52-.26.91-3.7,3.28-3.06,2.89.77,4.35-.27,6.91-2.09-1.8,5.75,3.11,6.88-1.41,8.3-1.35,2.46-3.38,4.93-5.1,7.23,2.31,3.22,7.14-6.41,10.96-4.94,4.69,2-2.04,5.1.43,8.39,4.47-5.31,6.69,1.04,3.13,4.73,4.36-1.02,14.4-6.47,14.43-12.6Z"/>
      <path class="st86" d="M594.39,653.48c-27.32,155.72-195.81,196.2-328.23,182.74,26.23-6.8,67.55-.13,96.09-2.42,119.45,0,204.65-78.89,232.14-180.32Z"/>
      <path class="st57" d="M161.27,622.43c-.6,2.87,1.26,72.57-.16,72.81-.98-8.6-1.55-70.91.16-72.81Z"/>
      <g>
        <path class="st19" d="M161.25,696c1.83,33.61-.39,80.08,2.69,115.96,0,0,0,21.67.02,65-.63,5.2,9.17,8.22,11.68,7.29-1.07-5.78.95-10.61,7.54-9.79-13.05-7.51-2.55-17.2,5.7-12.73,3.93.66-.46-9.97-1.82-12.32,6.35-9.32,7.99,11.73,13.65,12.13,3.32-12.8,7.9-.14,12.34,4.24,2.93,21.94,3.16.18,1.55-7.41-11.85-6.96-1.1-18.52,2-5.94,7.48,7.23,5.64,18.74,13.52,24.3,4.12-1.28,3.58,4.6,6.03,6.04-3.89-4.66-8.69-23.27,1.73-11.19,6.6,3.01,9.85,5.81,16.45,8.95,2.62,4.53,9.52,8.09,2.66,1.26-.72-3.76,3.32-5.99,1.33-10.96,4.81-3.87-11.25-12.64,2.72-12.95,3.16-14.4-8.53-7.62-1.08-15.75-10.89-5.89,8.38-14.38,7.05-4.38.94.58-3.46,3.35-.77,6.02.11,101.99.68,212.65.72,313.44-35.64-5.73-71.62-20.57-103.85-36.79-8.46-133.79-1.28-292.9-1.87-424.4Z"/>
        <g>
          <path class="st57" d="M159.74,1115.19c.74-.06-1.41-351.21.76-348.69-.75,1.08,1.45,348.74-.76,348.69Z"/>
          <path class="st64" d="M160.5,695.25c-.57,0,1.18,72.75-.75,71.25.64-.17-1.28-129.62.74-128.25.06,18.65,1.56,38.31,0,57Z"/>
          <path class="st57" d="M267,1154.23c-2.15-5.22-.06-306.56-.75-310.47,1.73-28.78.33,316.25.75,310.47Z"/>
          <path class="st57" d="M161.25,752.25v-39.75c1.42.61,1.4,39.13,0,39.75Z"/>
          <path class="st57" d="M237.21,885.8c1.38-1.77,3.76.2,2.49,1.59-1.32,1.49-3.94.3-2.49-1.59Z"/>
          <path class="st57" d="M161.25,704.25v-8.25c1.11,2.41,1.11,5.84,0,8.25Z"/>
          <path class="st86" d="M266.25,843.75c-2.55-.69-1.22-4.03-.02-5.32,0,0,.02,5.32.02,5.32Z"/>
          <path class="st86" d="M266.25,846.75v2.25c-2.22.77-2.03-3.07,0-2.25Z"/>
        </g>
      </g>
      <path class="st22" d="M372.76,495.08c24.91,2.82,52.71,12.29,71.38,26.91-49.79-27.93-117.42-28.45-174.76-19.47-3.83,2.08-4.34.14-2.23-1.54,33.93-6.92,70.95-8.77,105.61-5.9Z"/>
      <g>
        <path class="st25" d="M173.71,412.35c15.91-.07,10.63.92,17.85,11.39,16.89-2.16.41,8.15-3.49,11.26,0,0,10.16-.84,10.16-.84,8.39-12.22,15.26,1.34,1.2,4.51,3.22,1.65,4.68,3.59,4.38,5.81,7.59-2.74,8.13,3.36.93,5.61,8.02-6.78,34.76-9.68,13.03.87,3.94-.03,4.51,2.62,1.59,4.98,7.26-.63,22.92-.7,8.89,7.67,13.15-5.94,29.1-3,7.26,5.54-5.34,3.01,1.41,11.69.71.67,8.23-1.91,16.37,18.34,1.32,19.18,11.99.37,62.84-15.55,24.27,4.07,6.44.35,8.25,2.64,5.43,6.86-8.29,29.45,11.67,100.31-12.57,122.69-6.43,3.58-5.34-.96-4.04-5.33-12.68,5.15,4.2-16.16-12.04-1.39-10.2.85,3.47-8.11,1.88-13.62-.22-.3-6.71-.73-6.16,1.43-3.11,3.27-6.51,1.44-4.85-3.18,3.83-5.56,2.42-5.56-4.24,0-3.4.69-3.88-1.26-2.37-3.93-5.37,1.02-12.07-3.45-5.65-9.26-9.87,6.22-3.9-5.85-3.59-9.62l-8.92,6.07c-5.54-1.48,6.67-13.71-.47-6.74-8.96,2.74-10.66.07-5.25-7.46-7.84,3.75-3.73-8.8-13.36-12.65-17.38,5.03,7.32-15.77-14.3-.47-7.96-2.79,9.35-14.63,10.67-17.75-36.76,18.93-15.42,63.63-21.49,99.55,5.6-27.53-17.65-215.83,13.21-225.9Z"/>
        <g>
          <path class="st65" d="M269.38,502.51c-5.27,15.53.62,46.73-3.03,62.96-1.27,27.36,1.32,56.94-1.21,83.35-.3-27.59-.71-77.31.14-105.06,1.93-1.83-4.27-47.65,4.1-41.25Z"/>
          <path class="st65" d="M161.27,622.43c-1.63,1.07-1.22-69.28-.06-65.11-.9,10.15,1.86,57.12.06,65.11Z"/>
          <path class="st49" d="M229.22,491.28c1.05-2.18,6.33-3.06,3.23.33-.76.39-1.8,2.18-3.23-.33Z"/>
          <path class="st49" d="M181.26,420.07c-.98-.41.42-2.99,1.81-2.97,1.61.7.09,3.66-1.81,2.97Z"/>
          <path class="st49" d="M214.28,471.87c-3.09.32-2.08-1.86.58-1.61.57.16.83,1.54-.58,1.61Z"/>
        </g>
      </g>
      <path class="st4" d="M345.75,837.64c-.33,2.31-5.15,2.15-6.03.08,0,0,6.03-.08,6.03-.08Z"/>
      <path class="st4" d="M339.02,837.71c-.79,1.48-3.35,2.25-3.8.03,0,0,3.8-.03,3.8-.03Z"/>
      <path class="st4" d="M319.57,837.78c-.89,1.11-3.06,1.29-3.88-.03l3.88.03Z"/>
      <path class="st4" d="M332.3,837.74c-.8,1.18-3.05,1.18-3.85,0h3.85Z"/>
      <g>
        <path class="st49" d="M402.11,380.33c-5.26,2.46,7.54,2.42-.73,6.3-2.64,3.53-3.06,5.46-1.27,5.82,2.6-.06,10.04,1.35,7.09,4.95-4,2.8-21.42-3.53-6.37,1.73,10.54-1.31,6.08,10.25-1.59,6.13-5.93.08-23.5-3.05-7.08,1,4.83,3.16,11.5,13.76-.15,12.49-1.18,7.6-6.23,3.12-11,4.03-17.08-1.52-2.79,2.39,4.03,1.66,2.79.52,3.46,2.95,2.02,7.29,5.08,2.78,6.9,8.33-.45,8.51.31,3.59-2.22,5.31-5.39,3.34,1.7,1.36,1.41,3.04-.86,5.03,17.41,5.54-4.57,6.99-10.32,4.84-5.14-.92,8.95,7.03-4.59,6.92,25.56,8.24-3.07,3.58-8.02,10.7,5.24,1.44,19.04,3.77,3.54,7.85,7.73,2.04,3.32,4.82-1.67,6.3.89,6.53-3.27,7.71-9.81,7.9-28.49-1.41-53.76,6.62-82.34,7.87-3.97-.07.95-3.04-.31-5.58-5.08-3.03-23.63,8.58-12.74-.54,6.32-3.86,17.21-5.62,21.13-11.1-9.44-3.59-17.28,11.04-23.21,3.19-1.63,5.23-16.33,4.21-15.87,2.33-.56-2.99,6.36-1.81,7.48-4.47-2.97-3.72,2.85-3.34,2.34-5.87-3.99-.93-7.87-11.02-8.6-8.2.04,15.46-13.02-3.27,2.11-4.83,1.82-1.09,6.18-1.85,6-4.81-10.12.5-18.94,6.3-28.51,7.99,2.98-5.26,19.01-7.96,14.17-12.31-4.81,1.66-21.09,2.55-11.18-3.51-1.95-3.13-4.14,2.63-10.62,1.78,2.76-6.04,14.16-5.19,15.68-10.58-2.29-2.9-19.6,8.95-27.71,9.67,7.25-6.6,17.77-11.65,1.24-5.94,3.38-4.25,6.09-4.75-.23-8.55-3.64-3.1,13.73-4.96,6.01-9.19-3.91,6.27-17.17,5.15-21.51,8.05-1.67,1.84-3.51,3.54-6.4,1.8,6.74-8.16,34.93-16.16,12.3-15.49-3.83-20.69-8.41-3.43-13.34-11.97,60.33-34.52,153.52-47.64,226.74-32.52Z"/>
        <path class="st25" d="M194.09,420.28c-.1,1.14-2.66,2.21-2.89.34,0-.5,1.43-1.2,2.89-.34Z"/>
      </g>
      <g>
        <path class="st108" d="M519.21,432.47c23.34,18.13,43.1,42.38,53.35,67.06-.93,7.95-4.84,1.23-6.55-2.54-2.37-5.92-6.47,5.37-9.45-1.92,6.08,8.41,2.66,18.01-3.85,4.85-4.55,3.63-10.21,13.11-14.6,3.81-2.49,5.41-13.14,17.41-11.47,3.52-3.47-9.41,1.07,18.69-13.12,7.94-4.49-1-.59,8.87-7.05,3.23,4.1,7.65-12.8,6.51-8.62,1.09.09-.11-1.92,1.4-1.44,2.26,3.2,1.79,11.2,14.24,2.25,10.66-1.1-1.2-5.79-8.41-7.71-7.81-16.55-11.96-3.95-1.13,2.81,4.2,9.32,4.87-4.52,12.74-8.62,3.77-4.81-1.42-12.51,3.44-13.47-3.74-24.14,7.78-6.6-1.64-30.12-7.58-.84-.93-12.79-6.39-12.05-8.71-3.28-4.81,4.41-12.28,8.48-9.77-4.01.57-4.45-3.52-1.61-5.8-3.74-2.62-4.22-4.71-1.45-6.29-13.82-11,4.12-4.03,10.05-7.71-7.07-11.05-.39-16.97,9.96-9.28-.08-2.95-9.32-7.1-.11-7.53-21.75-9.22,2.65-7.29,12.52-5.06,2.85,6.73-.4-5.45,5.64.22-.12-3.23-33.63-19.55-7.46-15.72,5.45,6.44,9.51.19,16.04-.66-4.49-1.88-28-18.99-11.02-14.45,7.34,5.77,33.87,18.07,15.87,3.73-4.83-13.6,15.15,4.49,19.23,4.22-.91-8.88,8.23-3.72,14.62-1.42-2.31-1.41-4.95-4.76-1.04-4.59Z"/>
        <path class="st73" d="M464.85,527.11c.08,2.3-3.27.2-3.06-.91,1.01-1.68,2.63-1.77,3.06.91Z"/>
        <path class="st73" d="M470.45,507.91c.23-.23,1-.33,1.62-.14,1.35,1.25-3.13,2.46-1.62.14Z"/>
      </g>
      <g>
        <path class="st114" d="M454.65,395.21c21.95,10.82,59,22.75,66.29,44.47-23.05-13.87-4.64,8.18-22.16-3.13-4.17-.33-9.99-8.25-12.15-4.95,1.12,3.07,13.89,10.72,5.41,11.97-2.88-2.21-2.74-4.25-5.44-2.2-5.43-2.03-28.49-16.71-16.19-6.5,1.65,4.27,22.85,12.3,9.14,11.61,0,0-.99,3.21-.99,3.21-3.22-1.29-7.21-2.61-5.33,2.09-3.57-.26-15.2-10.02-16.01-3.62,3.13,2.17,27.6,15.99,12.82,13.4-2.49.93,4.15,2.49,2.02,4.74-4.62.08-5.36-4.85-10.01-4.29-5.98-2.2-10.34,2.22-13.57-3.02-1.65-.11-2.04,2.57-.03,3.17,7.26,4.61,12.86-.24,11.61,3.77-12.56,3.04-4.52,4.26,1.99,11.97.09,2.3-8.76-3.76-9.33-3.59-13.35-8.45-10.1,4.45-3.47,10.79-15.62.46-24.49-1.22-4.95,8.84-3.7,3.5-6.36-4.81-10.2-.9l4.82,4.04c-3.67,1.74-3.45,4.36-.44,6.15,3.19-.14,1.14,4.41.12,1.39-.84-3.4-6.69.01-7.85,3.51-.68,11.12-32.48-10.84-43.02-9.31-3.31-1.52.86-4.59,1.54-6.69-6.42-3.02-2.44-7.52,3.35-5.34-8.62-2.55,1.04-9.94,5.08-10.53-17.96-4.81-4.61-10.75,6.3-6.47-.92-3.62-8.38-10.1-1.86-11.61,30.41,0-20.04-17.86,16.98-13.32-3.86-4.58,2.26-3.3,1.06-10.27-6.26-3.75-4.76-8.2,2.32-5.63.79-4.73,1.04-4.86,6.27-3.38-1.34-2.42.08-5.1,2.73-5.7-10.72-2.59,3.49-11.1,10.28-8.17-2.95-4.01-.02-4.65,3.97-5.28,1.73-4.02,1.19-12.47,7.42-8.42-2.32-2.36-1.58-3.58,1.5-2.78Z"/>
        <path class="st108" d="M481.86,426.62c1.69,4.83-6.56,1.54-4.05-1.13,1.02-.26,3.43.33,4.05,1.13Z"/>
      </g>
      <g>
        <path class="st82" d="M402.11,380.33c12.79.25,68.86,17.78,47.02,18.3,2.43,3.49,1.08,3.12-1.81,5.64,1.16,4.79-2.41,2.98-5.92,5.02,9.23,6.55-7.13.42-13.26,7.53,0,0,9.8,4.12,9.8,4.12-.35,4.14-3.13.56-6.25.38-5.63,3.05,5.66,8.28-6.7,4.92-1.75-.16-1.03,2.35-.87,3.25-1.34,2.82-4.63-1.39-7.02.71l5.32,4.25c-2.6,2.29.16,5.9-3.18,7.81,11.18,8.88-6.42,2.42-12.63,3.07-2.23,3.7,14.97,5.81,5.99,10.38,0,0,1.73,1.06,1.73,1.06.39,5.47-21.3-.7-10.38,7.7-2.12,5.29,7.25,4.53,5.53,6.85-9.2-.08-34.22-5-5.75,5.89-2.59,3.65-6.72-1.92-9.37,1.93,0,0,6.3,2.63,6.3,2.63-.72,3.42-6.2-1.89-9.31-.06-3.33,3.92,4.77,3.35,6.04,6.86-4.45,1.17-7.76-2.71-10.35.15,10.29,6.18,13.33,3.61,2.45,5.69-2.99,8.93-12.16-3.24-17.65,1.87-11.14-1.54-81.39-.77-42.84-3.04,7.02-2.32,29.17,2.94,27.87-6.2-3.17,4.65-3.09-.49-5.53-2.84,2.52-.67,3.94.95,6.22,1.23,1.56-4.76,6.73-.64,5.89-4.87-1.63.72-5.61-.42-4.78-2.71,3.67-.53,10.73-2.42,6.87-4.07-3.98.05-17.1-.67-17.7-2.42-.14-2.03,7.09,1.17,10.81-3.14,2.94-4.22,8.46-2.37,13.07-3.05,10.23-.55-13-3.21-11.8-6.53.44-1.49,2.47,1.4,8.59-.37,8.86-1.68-8.98-4.99-11.73-4.17,3.75-4.15,10.7-1.33,16.01-1.96,8.93,2.26,18.61,0,4.21-2.81,4.4-3.12,5.29-5.66-1.4-5.13-2.23.79.9,2.46.85,3.47-4.28,3.57-5.43-3.34-3.14-6.27,4.08-2.32,9.1,3.18,11.83.4-.6-6.4,11.25-.67.52-9.65-.95-2.84,1.87-4.16.56-5.81-3.29.13-13.77-2.67-18.64-2.24.04-8.62,17.19.41,22.08-3.04.51-4.39,1.59-3.63,6.64-4.15,4.8-2.77-4.44-3.96-5.65-4.85,10.11-4.04-3.06-3.99-9.21-7.82,2.88-7.01,25.2,7,23.65-3.81-4.28,1.33-11.67-2.43-15.71-3.55-1.3.62-4.47.92-3.73-1.4,4.79-2.38,26.38,4.59,19.2-.92-2.25-.36-7.05-.15-7.59-3-.58-1.94,3.68-2.91,1.8-7.06,1.23.8,3.57.93,3.51-.26-5.86-3.32-15-6.16-.44-3.94Z"/>
        <path class="st114" d="M399.41,459.33c-.53,2.47-6.8,1.59-5.82-1.22.99-1.83,5.23-.6,5.82,1.22Z"/>
        <path class="st114" d="M383.17,496.6l-10.42-1.52c3.36.24,7.46-.05,10.42,1.52Z"/>
        <path class="st114" d="M387.74,494.99c.25.28-.57,1.4-1.94.75-.88-1.01.45-2.49,1.94-.75Z"/>
      </g>
      <path class="st73" d="M593.94,554.28c-1.93-.84-1.65-3.38-1.42-5.12,1.15.99,1.18,3.58,1.42,5.12Z"/>
      <path class="st86" d="M596.64,641.45l-1.58,8.66c-3.38.16.94-19.52,1.58-8.66Z"/>
      <path class="st52" d="M461.1,680.3c-18.82,28.69-58.95,40.96-92.81,41.74-17.92-3.04-121.36,10.79-93.68-9.81,52.2-10.65,123.38,10.15,164.26-24.32-1.4-.26-1.47-.44-.12-.92,8.48-9.61,6.12,4.72,12.17-3.73,1.33-2.94,13.58-11.48,10.19-2.97Z"/>
      <path class="st113" d="M477.53,652.29c-1.52,8.04-8.1,20.5-14.89,27.69-1.36.91-2.73-3.35-5.72-1.77,1.23,4.33-7.74,6.01-9.68,11.79-.1-4.33-4.07-.95-2.74-5.34-6.26-3.78,8.46-10.17,10.91-14.13-2.36-.88,7.3-17,8.91-12.88,1.11-1.68,1.28-8.42,3.22-6.33-.28-3,2.53-7.84,4.12-3.67l-4.85,12.91c7.9-2.62,10.49-25.07,13.21-33.03,7.43-27.06-4.01-68.66-26.31-89.85-2.42-2.11-10.5-10.71-5.8-9.87,35.73,28.67,45.85,82.5,29.64,124.48Z"/>
      <path class="st20" d="M442.36,522.91c1.97,1.98,10.57,8.21.77,5.05-46.19-37.91-133.68-30.21-174.95-20.87-.53,21.87,2.5,265.26-2.21,197.03,1.98-65.31-3.57-138.76,3.4-201.61,57.18-8.2,122.96-14.6,172.98,20.4Z"/>
      <path class="st57" d="M267.04,564.75c-.93,38.3.4,100.43-.07,139.5-4.83,18.97,6.01,19.21,21.77,18.71-6.03,1.07-6.96,4.75-11.57,1.61-1.92,6.8-6.65,3.73-11.78,4.77-3.7-1.13,4.94-2.91,1.15-4.68-4.47-32.57-1.63-122.95.5-159.91Z"/>
      <path class="st57" d="M461.75,682.35c-11.87,15.71-27.97,27.13-46.32,32.8-.52.23-.58-1.87-.1-2.14,25.19-9.76,49.28-29.99,60.01-55.18.63,5.17-9.28,20.02-13.59,24.52Z"/>
      <path class="st65" d="M368.29,722.04c-14.8,2.75-86.03.26-100.55.29l100.55-.29Z"/>
      <path class="st65" d="M429.53,709c10.31-4.57,22.59-18.9,29.13-21.81-5.84,5.32-22.19,26.04-29.13,21.81Z"/>
      <path class="st57" d="M319.5,833.98l-39,.03c.61-1.42,38.32-1.43,39-.03Z"/>
      <path class="st65" d="M278.34,501.28c-2.74.41-5.51,1.08-8.39,1.21,2.53-1.15,5.58-1.68,8.39-1.21Z"/>
      <g>
        <path class="st73" d="M567.17,487.52c11.23,20.9,24.76,44.42,24.26,67.55,4.35,8.47,7.94,65.5-3.1,35.15-1.58,4.31.39,9.25-1.17,13.53.81,5.95-4.72-4.19-4.87-8.06-1.67,3.67.18,3.2-3.68,5.56-2.46-5.38-3.88-4.24-9.05-8.47-.38,3.37-.72,5.52-3.35,7.39,1.23,3.44,2.87,8.03-2.27,5.48-5.71-1.63-8.65,8.6-2.67,6.18-.87-7.76,5.25-1.53,3.95,2.52-5.56,3.69-10.51-1.7-12.08-2.47-4.03,1.56,2.37,3.29,2.49,4.33.09.84-.93,2-2.23,1.92-3.95-.24-2.57-6.24-4.92-7.54-1.58-.87-3.82,3.22-4.88.42-1.98-4.13,14.5-2.86,6.24-7.74-2.86.56-8.75,6-10.4,7.07,1.05,2.5,1.33,5.7-2.33,6.07-2.77,1.22-5-3.55-6.21.41-1.34,1.68-9.11-4.94-5.5-5.26,4.55,3.24,3.8-3.75-.17-4.51-9.37-17.39,2.7,12.6-9.99,8.01,7.02-4.21-.65-17.92-5.71-14.1-12.26,4.27-8.37,2-13.79-7.46-6.09.51-.46,6.39-3.89,10.49-4.12-1.22.67-5.29-3.03-7.87,2.12-3.46,2.35-7.23.59-10.48-2.17,2.98-2.64,1.04-4.74-.91-6.27-24.47-20.18-47.73-40.53-62.76-.74-1.32,1.78-.66,2.51-1.47-.78,2.01,1.15,4.97,2.73,3.31-2.44-3.79,5.18-1.98,4.19,1.34,13.56,13.57,8.04-.75,18.34,2.35-6.25-8.46,1.6-15.47.84-5.32,4.21-3.18,4.25,1.97,5.03,4.83-5.92,1.3-5.11,4.82.32,4.9.64-4.39,7.05-6.67,3.73-1.6,5.92,1.23,12.21,10.96,13.75.37-6.47-.47-22.83-18.54-7.17-10.48.72,2.33,2.68,3.15,5.01,3.4,3.12,2.09,4.27,8.14,8.41,8.1-.53-4.22-6.57-6.99-6.93-10.82,1.06-5.3,11.44-2.62,3.2.21,10.31,3.75,6.95-.97,4.36-7.74,0,0,7.44,5.77,7.44,5.77-2.11-4.66,3.14-8.5,5.93-3.24,5.5.41,10.2-2.56,3.87-7.14,6.45.52,3.56-4.22,3.38-8.18,4.75,3.85,6.22,5.9,4.38,11.45,3.75,1.15,7.99-6.96,8.94-8.4-1.32-1.29-4.03-4.7.09-3.82-.01,1.84,2.9,2.88,4.22,3.46,1.52,7.68,3.31.11,8.08-1.71,6.53-7.42,3.8.91,10.75,4.02-.81-2.06-5.98-12.72-6.23-14.55,4.52-4.78,3.01,10.97,10.32,2.4,2.57-.29,4.59,4.08,6.93,8.93,4.37-5.53-8.14-12.47-3.35-14.86Z"/>
        <g>
          <path class="st57" d="M558.5,601.88c-.41,11.4-9.19-5.44.74-1.69,0,0-2.5-3.67-2.5-3.67.29-1.71,1.71-.57,2.53-.07,9.14,2.24,4.91,3.66-.77,5.44Z"/>
          <path class="st57" d="M546.59,592.16c1.54-1.34,2.62,2.75.86,7.54-2.06-3.51-2.97-5.71-.86-7.54Z"/>
          <path class="st57" d="M538.18,613.44c-3.24.8-6.83.11-3.68-3.07.99,1.71,1.54,1.79,3.68,3.07Z"/>
          <path class="st57" d="M545.72,583.62c1.16.66,1.6,1.81-.09,2.18-2.01-1.12-2.71-6.63.09-2.18Z"/>
          <path class="st108" d="M517.07,528.19c.94-.8,2.23.2,1.7,1.49-1,1.26-2.33.1-1.7-1.49Z"/>
          <path class="st57" d="M509.06,594.56c-1.04.65-2.64-.95-2.16-1.56.96-.21,3.12.1,2.16,1.56Z"/>
          <path class="st108" d="M512.44,522.15c1.18-.83,1.54.44,1.29,1.66-.39,1.01-2.12-.89-1.29-1.66Z"/>
        </g>
      </g>
      <path class="st53" d="M279.02,517.73c-.72,27.88-1.27,147.65.59,192.35-25.61,32.8-5.68-173.25-11.09-198.81,1.81-1.62,3.15-.73,3.03,3.48.27,58.59-1.21,117.13,0,175.69,13.26-34.24-6.95-143.68,7.46-172.71Z"/>
      <path class="st6" d="M269.25,509.25c.44,3.41-.09,87.47-.62,92.39,0,0,.16,117.29.16,117.29-1.9,5.93-2.4-235.21.46-209.68Z"/>
      <path class="st33" d="M438.87,687.92c-4.85,3.58-11.6,8.95-16.66,9.3,5.02-2.44,10.69-8.22,16.66-9.3Z"/>
      <path class="st67" d="M421.54,698.26c1,1.38-19.7,7.7-11.14,3.94,3.51-1.62,7.26-4.3,11.14-3.94Z"/>
      <path class="st94" d="M384,708.82c-5.73,1.36-10,1.68-14.25.41,4.54-1.37,9.55.11,14.25-.41Z"/>
      <path class="st102" d="M281.29,708.7c5.16.15,4.75,1.46-.05,2.78-2.11-.14-2.73-3.68.05-2.78Z"/>
      <path class="st66" d="M398.99,706.55c-2.72,2.04-6.57,1.34-9.62,1.67-1.72-2.13,7.86-1.72,9.62-1.67Z"/>
      <path class="st66" d="M406.51,704.3c-1.64,1.89-4.41,1.58-7.22,1.09l7.22-1.09Z"/>
      <path class="st0" d="M443.31,683.23c.44.97-1.84,1.82-2.34,2.23,0-1.36.97-2.26,2.34-2.23Z"/>
      <path class="st45" d="M440.97,685.45c-.08,1.96-3.68,1.91-1.73.14,0,0,1.73-.14,1.73-.14Z"/>
      <path class="st62" d="M446.88,529.05c5.87,2.5,27.08,31.34,13.02,19.07-14.14-2.71-27.05-21.57-42.87-26.16-36.73-17.63-84.46-17.85-128.25-11.88-6.58.68-14.45,2.03-12.85,10.17-36.1-37.67,155.68-23.72,170.95,8.8Z"/>
      <path class="st75" d="M465.19,549.69c8.87,5.88,23.65,60.89,7.55,32.92-1.16-2.44-4.46-10.08-5.19-13.46,1.38,4.04-1.22,3.44-1.29-.44-5.68-9.74-11.56-18.4-18.36-26.5,3.23-2.15,2.67,3.31,7.42,2.46,1.13-.2,2.19,1.98,2.65,3.17,2.98-5.98,5.56,6.76,7.22,1.85Z"/>
      <path class="st55" d="M476.4,607.8c4.24,9.43-4.25,25.81,2.15,31.91-2.66,6.07-5.56,26.78-13.7,21.78,0,0,5.63-14.99,5.63-14.99-3.14,3.49-4.7,6.93-2.52.01,7.13-8.87,5.04-39.56,8.44-38.71Z"/>
      <path class="st2" d="M478.55,639.71c-9.34,1.27.43-24.33-2.16-31.91,8.25,7.3,2.36-7.72,3.82-15.2,6.73,8.13,1.3,34.01-1.66,47.11Z"/>
      <path class="st80" d="M480.26,584.84c3.13,11.6,1.38,22.77-.3,34.04-6.15-7.23-3.12-26.56-8.12-33.97-.81,4.93-2.35-7.4-.55-7.56,1.04,4.8,9.59,20.38,8.97,7.49Z"/>
      <path class="st55" d="M464.32,657.65c-.39-1.43-.09-3.06,1.42-3.68.19,1.07-.31,3.49-1.42,3.68Z"/>
      <path class="st38" d="M467.53,651.32c-1.88,1.33-1.22-2.57-.3-3.32,0,0,.3,3.32.3,3.32Z"/>
      <path class="st107" d="M453.74,672.75c-.46,1-1.23,1.81-2.29,2.31-.07-1.5.97-2.13,2.29-2.31Z"/>
      <path class="st79" d="M455.4,670.53c-.09,1-.67,1.89-1.66,2.22-.11-1.03.13-2.44,1.66-2.22Z"/>
      <path class="st35" d="M377.98,510.77c-23.69-6.47-53.37-1.68-83.99-1.39,4.29,2.25-9.84,1.33-11.95,2.45-4.57,1.35-1.05,8.62-5.15,3.11-.55,32.61-.02,89.48-.63,122.19,1.47,10.43-1.21,95.91-6.43,44.51-1.27-49.01,1.78-127.95-.68-176.88,5.62,4.93,1.37,12.33,5.99,15.65-8.25-21.08,116.52-16.18,102.85-9.65Z"/>
      <path class="st65" d="M266.87,716.94c-1.11-1.02-1.23-11.75.1-12.69,0,0-.1,12.69-.1,12.69Z"/>
      <path class="st65" d="M267,627.75c-1.16-1.59-1.16-4.4.05-6l-.05,6Z"/>
      <g>
        <path class="st65" d="M461.75,682.35c5.41-9.06,13.08-18.87,15.78-30.06-1.47,3.8,4.15,4.06.99,1.34,3.48-4.76,2.94-16.28,8.3-19.42-.68,4.36,5.19,7.54.42,11.13-5.71,2.41,6.32,6.42-1.86,6.16-2.6,2.19,2.03,11.48-3.3,11.39-4.15-5.84-5.99-1.9-.89,1.5-8.65,3.31-3.17,17.78-1.37,25.54-13.79-12.59-11.93,2.17-18.06-7.58Z"/>
        <path class="st57" d="M473.42,679.83c-5.98.43-3.63-6.49-.58-8.93-.37,4.24.47,5.11.58,8.93Z"/>
      </g>
      <path class="st2" d="M476.41,606.76c-1.8-.8-.65,12.07-1.06,12.58-4.15,8.61-.16-27.52-3.52-34.43,1.97-4.44,4.64,17.15,4.57,21.85Z"/>
      <path class="st92" d="M474.01,623.25c-1.93,18.14-1.05-19.63-.91-24.03-1.18-26.75,1.88,17.3.91,24.03Z"/>
      <path class="st2" d="M471.29,577.34c1.07,10.09-5.21-5.41-3.66-8.93,0,0,3.66,8.93,3.66,8.93Z"/>
      <path class="st14" d="M471.73,634.54c.11,3.4-1.01,9.95-3.77,11.97,1.25-2.66,3.5-15.51,3.77-11.97Z"/>
      <path class="st2" d="M472.63,633.79c-.19-1.85-.3-5.47,1.36-6.78-.01,2.28-.43,4.73-1.36,6.78Z"/>
    </g>
    <g>
      <path class="st112" d="M1264.42,378.92c8.33,3.95,1.27,37.39,2.36,45.63,1.84,22.06,2.91,59.12-.72,80.28-.92-4.17,1.27-36.45-1.75-36.17-4.83,3.71-.61,19.99-3.02,28.14-2.32,51.51-.65,106.35-1.73,157.84-1.08,13.34,1.64,30.01-1.06,42.1-.86-101.96.03-204.18-1.5-306,0,0,.25-14.76.25-14.76,2.15-2.69,7.99-3.72,7.17,2.93Z"/>
      <path class="st46" d="M1258.48,501.75c-1.74,85.92,1.62,176.06-1.47,259.96.24,18.36-.76-501.73.96-327.77-.1,20.97.11,46.96.51,67.81Z"/>
      <path class="st10" d="M1255.53,932.99v-5.24c1.13,1.32,1.13,3.93,0,5.24Z"/>
      <path class="st115" d="M1250.99,957.71c-1.45,2.21-.1-3.52-.06-3.74,1.26.86.9,2.69.06,3.74Z"/>
      <path class="st56" d="M1250.99,957.71c-.05,1.61.52,2.88-1.52,1.52.3-.57.61-1.88,1.52-1.52Z"/>
      <path class="st115" d="M1253.27,946.51c.13-2.03,1.55,2.23.31,3.06-.59-1.32-.28-2.2-.31-3.06Z"/>
      <path class="st10" d="M1258.5,696.75c-.73.78,1.44,65.54-.76,65.25.69-.09-1.35-111.31.76-108.75,0,0,0,43.5,0,43.5Z"/>
      <path class="st8" d="M1258.5,653.25c-1.4.77-1.44-151.64-.03-151.5,0,0,.03,151.5.03,151.5Z"/>
      <g>
        <path class="st63" d="M867.9,787.48c-22.2,25.5-54.61,64.77-77.97,88.84-.84,1.06,1.56,5.03,2.77,3.55,2.31,1.63,7.72,5.91,3.82,7.98.51,3.2,2.52,6.31,3.03,9.82-5.95-6.11-24.38-18.33-14.02-26.56,12.33-12.4,26.33-29.38,37.57-42.7,11.27-13.86,28.38-28.2,36.96-43.82,6.51-10.01,13.6,1.76,7.82,2.89Z"/>
        <path class="st58" d="M866.21,779.25c-1.97,1.97-3.02,4.69-6.14,5.34,1.1-3.26,5.02-7.81,6.14-5.34Z"/>
        <path class="st105" d="M790.4,888.83c-.63-.67-1.58-1.09-1.41-2.28.65.34,3.29,1.58,1.41,2.28Z"/>
        <path class="st105" d="M785.28,882.74c-1.07-.39-1.77-1.3-2.3-2.25,1.45-.18,2.28.95,2.3,2.25Z"/>
        <path class="st105" d="M795.32,885.89c-.04,1.18-1.24,2.23-1.4,2.83-2.57-1,.68-5.39,1.4-2.83Z"/>
      </g>
      <g>
        <path class="st61" d="M1379.19,951.74c-14.94,116.71-133.12,215.39-251.95,203.86-34.72-4.65-71.12-14.73-101.47-32.52.42-2.82,3.32-1.36,5.25-.11,7.46-2.89-6.84-1.22-1.07-6.8,50.41,25.57,108.88,39.42,162.71,26.41,58.21-16.79,118.14-53.01,145.41-108.47,7.44-9.75,10.56-22.7,18.83-31.48,8.08-8.59,20.55-85.39,22.29-50.9Z"/>
        <path class="st56" d="M912.57,837.87c63.71,57.4,139.74,185.69,223.86,179.72,33.99,8.03,73.16-.04,96.06-28.76,7.71-8.14,12.24-19.68,17.29-28.51,1.7,21.87,11.34-14.73,12.52-3.18-4.69,34.55-40.93,69.75-75.07,72.5-142.18,18.66-225.13-147.19-317.14-234.25-24.84,27.4-49.73,55.11-74.66,83.1-25.65,5.82,63.91-76.04,70.66-91.21,15.81,8.14,34.93,35.29,46.48,50.59Z"/>
        <path class="st105" d="M862.28,958.64c51.56,53.08,99.66,115.36,164.44,155.4,3.41-1.44,3.18,3.97,4.34,5.96,6.35-3.2,4.01,4.33-.31,4.84-28.08-11.95-53.24-34.76-76.41-54.92-53.57-55.28-112.39-116.57-157.48-177.77-6.2-23.44,60.12,59.12,65.42,66.49Z"/>
        <path class="st10" d="M1265.92,647.3c-3.74,100.44,10.26,202.19-3.85,300.41-12.06-10.3-2.12-90.38-3.39-108.68-.2-52.89.58-106.18,1.69-159.13.22-6.83-1.26-52.38,5.55-32.61Z"/>
        <path class="st80" d="M1379.1,539.57c.55,105.21-.34,202.04.92,310.2,1.03,14.34,2.78-22.95,3.03-27.07,5.54,27.6,5.15,88.78-1.42,122.39-1.65,11.83-2.59,2.02-5.87-3.27-3.69,21.87-9.72,44.89-19.77,64.87,9.12-34.06,21.96-75.58,19.35-114.27,4.73-160.94-1.12-318.4,1.3-468.03,9.9,22.55,2.08,81.52,2.45,115.18Z"/>
        <path class="st8" d="M1266.05,504.84c.67,41.43.29,96.72-.13,142.47-6.89-25.6-4.41,74.9-5.18,79.56-.89,37.79-1.22,77.19-1.2,113.82-4.94-16.13-.25-492.79,6.51-335.85Z"/>
        <path class="st95" d="M1384.77,415.69c4.3,41.07,1.57,176.52.47,216.56-7.96-57.83-5.13-121.52-6.52-182.28-1.13.41,2.75-31.36-2.07-25.59-5.82-2.28,5.18-12.72,8.12-8.69Z"/>
        <path class="st112" d="M1295.25,377.37c10.38,1.76,105.07,33.01,83.96,40.48-11.2-2.75-29.3-10.4-39.63-18.09-3.63-2.14-14.89-.22-15.62-6.11-16.21-1.48-92.67-24.25-28.71-16.28Z"/>
        <path class="st28" d="M980.94,904.43c14.64,12.9,29.73,32.22,44.36,45.7,6.49,10.54,33.5,20.67,30.31,32.84-7.43,5.3-104.43-92.09-74.67-78.53Z"/>
        <path class="st15" d="M1132.57,1016.16c-2.88,3.43,2.02,2.59,4.48,3.41-19.26,10.93-48.4-11.36-66.24-21.84,0,0-20.27-14.97-20.27-14.97,3.02-5.69,6.88,4.08,4.12-7.21,23,17.02,49,36.39,77.91,40.61Z"/>
        <path class="st1" d="M1273.56,382.52c-9.97,162.19,6.11,382.96-5.9,538.11,3.04,10.5-2.76,8.59-.16,11.63,2.36,5.07-2.27,14.64-1.93,3.67-2.31-.33,2.38,21.43-3.26,21.22-.21-4.58-3.21,2.8-3.58,3.46-3.02,7.71-12.64,7.53-7.68-.6-.47-10.4,4.94-21.83,5.33-33.8,1.94,6.3.12,16.36,5.83,20.38,19.91-181.77-9.87-396.16,11.36-564.06Z"/>
        <path class="st115" d="M1251.04,960c-1.93,9.43,3.8,3.08,7.67.6.37,4.89-5.23,6.06-8.11,8.83-3.05-.62-1.52-15.21.44-9.43Z"/>
        <path class="st101" d="M1192.66,1142.59c49.41-16.35,114.55-51.52,145-106.13-22.61,49-87.18,92.95-145,106.13Z"/>
        <path class="st34" d="M1130.27,1145.99c14.49.35,27.72.52,41.98-.74.5-.33,17.68-8.12,20.41-2.66-20.73,5.16-42.66,7.31-64.04,5.05-36.03-3.72-71.02-15.4-101.91-33.6,27.75,7.42,68.14,28.76,103.55,31.95Z"/>
        <path class="st115" d="M1277.2,381.26c29.24,5.98,61.33,16.56,87.8,30.39,1.58,1.75.78,2.08-2.41.99-6.46.51-17.16-7.29-21.23-9.51-.94-.39-1.61-.23-2.04.88,2.49,1.22-31.95-11.2-40.19-14.79-9.61.43-20.48-7.16-30.14-6.66,1.13,10.18.21,778.35-2.79,412.56-.5-136.68.82-273.2.36-409.23-4.49-16.35-.58-3.93,10.64-4.62Z"/>
        <path class="st1" d="M1266.21,795.1c-.21-70.74-.33-213.14-.21-283.6,2.17-2.66-.52,283.65.21,283.6Z"/>
        <path class="st97" d="M1281.09,384.69c7.62,3.18,25.68,3.16,27.72,9.52-4.68-1.73-34.37,2.25-22.6-5.13-.54-.22-10.99-2.17-11.58-2.16,3.15,61.71-6.1,143.43,4.05,196.06-2.06-9.16-.6-21.91,11.52-11.49-2.25-7.39-1.91-10.53,6.32-11.43-2.77-4.29.07-6.25,4.39-5.9,2.03,6.81,13.35,7.97,5.75,15.84,2.72,2.1,6.34,12.43,3.44,1.96-.77-3.53-1.12-5.36,3.01-4.22-.97-5.39-11.59-12.02-12.06-19.3,1.04,7.61-13.06,7.01-8.99.62,8.29-3.83-3.67-6.42-2.68-11.59-13.37-8.03,12.47-9.91,12.5-3.06-3.49,8.48,13.87,9.6,16.43,19.36,1.18,1.25,1.66-.34,1.45-4.76-8.58-4.48-14.71-5.04-3.94-11.94-2.21-2.68-4.39-5.72.6-6.2,3.25-6.74-4.74-7.74-3.02-14.23,4.45-4.24,8.97,4.92,12.5,6.62,1.21-10.6,13.01,5.9,14.87,9.76,14.43-2.51-16.28-14.71-14.88-21.12-7.62,4.78-15.64-15-3.43-9.92,9.85,10.49,24.42,16.26,34,26.94-.07-10.5,9.35-3.1,14.07-.59,2.96-32.73,3.2-69.44-.93-101.23-8.38,1.2,1.88-11.92-3.7-5.57-6.28,4.48-28.55-11.63-12.05-7.62,9.15,4.36-7.77-7.48-11.48-3.43-3.09-.44-6.48-9.58-1-7.37,51.59,21.37,31.21,7.77,35.46,64.84.26,106.89,1.08,215.08.17,322.55-1.9,64.28,8.06,139.62-16.32,200.51.49-12.55,7.43-26.48,8.76-40.21,1.38-13.35,8.86-35.78.62-46.7.35-3.23,3.58-4.28-.17-6.16-1.73-3.13,2.67-9.02-.88-9.63-3.49,3.47-3.99,10.38-7.53,12.9-2.6.37-3.46-3.41-5.66-2.58-4.09,1.66,1.82,4.12,1.71,5.49-11.83,9.15-8.83-5.28-.02-8.05-2.48-2.15-2.17-6.44.11-8.58,4.37-9.02-4.52,1.42-4.42,2.62-2.15.26-1.27-2.49-.3-2.73,10.56-22.48-3.35-5.9-7.35,6.91-1.99-1.79,4.21-17.05-1.44-7.25-3.44-6.49-6.33-1.28-7.95,3.74-4.95-2.93,6.72-10.61,2.87-14.19-2.22,3.35-6.3,6.93-8.23,10.79-1.48-5.54-1.26-3.42-4.85-.32-3.15-5.58,7.59-20.33.76-17.49-.26-.78-10.42,21.54-11.71,7.38,4.37-3.88,5.27-8.96,3.69-10.33-1.68-2.05-.87,6.26-4.06,3.01,3.01-6.04-1.48-9.15-6.3-12.45-3.59.51-5.62,14.71-9.34,11.45,2.2-6.53-2.91-10.31-1-17.07-3.78,2.77-14.19,22.9-11.64,9.72,6.6-3.28,4.13-8.12,7.74-11.5-4.21-.32-1.58,6.41-8.4,6.78-1.16-8.96-10.9,7.91-12.62,12.18-1.87,14.39.99,31.18-.94,45.42,3.22,4.44-3.54,5.28.97,8.92-5.39,1.65-3.01,11.14-4.27,15.21-2.13.75.98-14.76.67-15.31,9.52-14.6-18.08-542.58,11.59-538.29Z"/>
        <path class="st27" d="M1385.24,632.25c-1.63,37.91.79,129.51-1.33,166.97-.5,3.39-.95,24.06-4.29,12.93-1.35-57.79-3.45-442.67,5.62-179.9Z"/>
        <path class="st95" d="M1377,790.5c.67.51-1.33-173,.75-167.82-.76,1.02,1.45,167.74-.75,167.82Z"/>
        <path class="st95" d="M1378.5,645c.65-1.38-1.33-53.31.74-53.95-.24,15.91,1.53,38.86-.74,53.95Z"/>
        <path class="st95" d="M1377,828.75v-35.25c1.42.55,1.38,34.76,0,35.25Z"/>
        <path class="st95" d="M1378.5,744.75s0-27,0-27c1.36.64,1.36,26.35,0,27Z"/>
        <path class="st95" d="M1379.16,589.61c-1.22-1.48-1.16-20.48-.02-22.01,0,0,.02,22.01.02,22.01Z"/>
        <path class="st95" d="M1377.01,525.75l-.03-17.24c1.43.89,1.37,16.3.03,17.24Z"/>
        <path class="st95" d="M1376.98,564.75v-15.01c1.42.9,1.4,14.08,0,15.01Z"/>
        <path class="st95" d="M1378.5,660v-13.5c1.35.93,1.36,12.56,0,13.5Z"/>
        <path class="st95" d="M1377,578.25l-.02-12.03c1.38.92,1.37,11.1.02,12.03Z"/>
        <path class="st95" d="M1377,477.18c-1.11-2.77-1.06-6.44-.17-9.23l.17,9.23Z"/>
        <path class="st95" d="M1378.5,756.75v-8.25c1.11,2.41,1.11,5.84,0,8.25Z"/>
        <path class="st95" d="M1379.18,562.58c-1.06-1.98-1.09-4.92.06-6.83l-.06,6.83Z"/>
        <path class="st95" d="M1378.5,711.75v-6c1.16,1.6,1.16,4.4,0,6Z"/>
        <path class="st95" d="M1378.5,794.25s0-4.5,0-4.5c1.87.93,1.26,3.46,0,4.5Z"/>
        <path class="st95" d="M1378.5,677.25v-4.5c1.17,1.04,1.17,3.46,0,4.5Z"/>
        <path class="st95" d="M1376.97,531.02l.03-4.52c1.22,1.01,1.19,3.5-.03,4.52Z"/>
        <path class="st95" d="M1376.97,543.74v-4.47c1.26.96,1.26,3.5,0,4.47Z"/>
        <path class="st95" d="M1378.5,763.5v-4.5c1.17,1.04,1.17,3.46,0,4.5Z"/>
        <path class="st95" d="M1376.88,458.28c-1.03-1.16-1.03-3.38.05-4.57l-.05,4.57Z"/>
        <path class="st95" d="M1377,619.5v-4.5c1.17,1.04,1.17,3.46,0,4.5Z"/>
        <path class="st95" d="M1378.5,693v-3.75c1.15.76,1.15,2.99,0,3.75Z"/>
        <path class="st95" d="M1379.26,555c-1.17-.82-1.11-2.89-.08-3.86l.08,3.86Z"/>
        <path class="st112" d="M1266.75,511.49c-1.52.91-.38-4.19-.67-4.55,1.06,1.27.67,3.01.67,4.55Z"/>
        <path class="st1" d="M1379.21,417.84c-2.02,3.79-14.34-4.81-16.61-5.21,3.65-1.88,12.68,4.36,16.61,5.21Z"/>
        <path class="st1" d="M1266.78,424.55c-1.19-1.91-1.18-4.92-.05-6.83l.05,6.83Z"/>
        <path class="st1" d="M1266.67,459.79c-1.09-1.16-1.09-3.49-.05-4.54.48,1.15.07,3.24.05,4.54Z"/>
        <path class="st1" d="M1323.96,393.64c-2.59-.27-5.05-.83-7.1-2.24,2.77.77,4.92.53,7.1,2.24Z"/>
        <path class="st1" d="M1339.59,399.75c-1.53.1-3.01-.32-3.94-1.67l3.94,1.67Z"/>
        <g>
          <path class="st37" d="M911.36,825.54c4.91,9,82.11,84.09,64.97,78.62-4.34.84,6.66,6.83-.5,4.83-6.27-8.74-81.79-83-64.47-83.46Z"/>
          <path class="st28" d="M973.99,901.48c-.86,3.57-1.7,1.3-3.36-.21,3.46-4.47,8.42,4.81,3.36.21Z"/>
        </g>
        <path class="st98" d="M1269.7,909.77l.05-20.27c1.33.89,1.45,19.47-.05,20.27Z"/>
        <path class="st115" d="M1268.25,923.25c-1.98,5.58-.79-8.51-.36-10.56l.36,10.56Z"/>
        <path class="st24" d="M1273.56,382.52l7.53,2.17c-1.52-.05-17.94-2.34-7.53-2.17Z"/>
        <path class="st115" d="M1267.48,930c.27,1.3-.22,3.04-1.33,3.85-1.31-4.3,1.29-11.76,1.33-3.85Z"/>
        <path class="st24" d="M1269.75,397.5v-13.5c1.35.94,1.36,12.56,0,13.5Z"/>
        <g>
          <path class="st69" d="M911.36,825.54c-3.72-.11-3.74,2.55-.03,1.88,1.53,3.07-2.54,6.58,1.81,7.5,3.55-3.18,5.24.75.9,1-1.59,3.87-2.99-.44-4.6-1.65-8.64-9.37-33.46-38.29-41.54-46.79-11.73-30.63,34.72,31.91,43.46,38.05Z"/>
          <path class="st37" d="M908.52,830c.43-1.74,2.86-.39,1.86.92-.64,1.25-2.07.86-1.86-.92Z"/>
        </g>
        <g>
          <path class="st95" d="M1385.67,797.96c.97,24.08-4.52,48.94-3.61,73.54-1.26,5.08,2.67,23.16-2.59,22.23-.34-5.75-.56-12.12.24-17.78-1.26-5.4-2.06-115.81,1.42-63.49,2,.96-2.72-19.99,4.19-28.68,0,0,.36,14.19.36,14.19Z"/>
          <path class="st27" d="M1381.01,820.02c2.55-.53.21,3.16-.86,1.51-.11-.46.1-1.34.86-1.51Z"/>
        </g>
        <g>
          <path class="st81" d="M1121.13,1025.04c7.5,5.58-13.05-.48-.54,4.68,4.94-3.81,14.48,2.2,5.12,4.56,3.95,3.78.68,6.06-3.91,4.84-3.18-2.91-9.55,1.7-4.72,4.22,4.77-.21,12.1,8,3.8,8.05-13.33-.43,17.94,4.84-6.88,8.2-3.79-2.4-3.11,1.62-2.89,1.49,3.32-1.91,4.16-1,4.29,2.75,6.3-.17,17.56,2.47,22.08,8.34,1.83-4.78,3.14-4.46,7.82-3.1,13.64-1.92-7.38,12.67,12.76,10.51,16.35,2.87-.72,7.86-8.36,6.07,2.47,5.4-6.01,6.51-9.69,4.34-5.13-.49-5.75.31-1.85,2.39,4.86-2.7,18.19,6.81,7.29,5.29-2.53.82-.87,7.12-1.97,10.4-1.34,1.83-3.94,1.33-5.07,3.8-10.33,3.64,13.07,1.73.89,8.06,3.2,1.67,10.13,1.9,4.33,6.15,1.56,2.23,2.18,4.16-.82,5.07-.69-1.07-11.35-.15-10.6.2,11.8,4.64,25.69-.88,36.04,4.64-4.56-4.57,2.32-6.54,6.08-3.41,13.8-4.64,19.04,8.28,34.05,2.26,4.09-7.37,24.41-6.28,3.8.75-83.57,29.43-177.77-4.3-240.98-63.3-64.98-60.24-118.37-128.33-178.36-192.42,16.3-18.59,61-69.26,77.07-86.93,74.73,75.03,148.22,193.94,251.22,232.1Z"/>
          <g>
            <path class="st30" d="M863.48,957.51c-15.84-9.95-52.11-60.57-71.62-77.06,2.96-7.44,67.11,75.39,71.62,77.06Z"/>
            <path class="st59" d="M1027.53,1112.85c-59.48-29.25-122.32-105.28-164.05-155.34,49.11,53.1,101.11,117.79,164.05,155.34Z"/>
            <path class="st61" d="M1161,1146c9.88.1-9.49,1.29-10.57.65.55-1.31,9.47-.4,10.57-.65Z"/>
            <path class="st61" d="M1143.04,1146.71c-1.02-.36-12.67.99-12.77-.72,1.08.3,12.42-.74,12.77.72Z"/>
            <path class="st61" d="M1167.75,1145.25c8.09-1.15-4.04,2.63-3.02,0,0,0,3.02,0,3.02,0Z"/>
            <path class="st31" d="M1172.25,1145.25c-.95,0-3.52,0-4.5,0,1.05-1.16,3.46-1.16,4.5,0Z"/>
            <path class="st31" d="M1177.47,1144.44c-1.16.25-2.67.01-3.72.81-.61-2.06,3-2.1,3.72-.81Z"/>
            <path class="st31" d="M1164.73,1145.25c.64,1.47-3.03.48-3.73.75.88-1.08,2.47-.75,3.73-.75Z"/>
            <path class="st31" d="M1146.77,1142.62c-11.89,2.26-45.61,1.08-11.59-3.8,2.77,1.44,15.94-2.38,11.59,3.8Z"/>
            <path class="st31" d="M1166.08,1143.59c-2.2-.69-15.87,2.47-13.96-2.6,2.83.69,13.96-2.52,13.96,2.6Z"/>
            <path class="st31" d="M1141.23,1079.17l-7.87-1.19c2.18-3.53,15.01-2.04,7.87,1.19Z"/>
            <path class="st31" d="M1139.93,1125.4c-2.07,2.41-5.59,2.13-7.68-.63,2.44-1.21,5.54-1.13,7.68.63Z"/>
          </g>
        </g>
        <g>
          <path class="st98" d="M1359.73,988.81c-60.59,160.58-236.22,160.23-129.58,128.1-6.38,1.69-8.75-5.6-11.13,1.29-2.99.36-12.69,1.3-13.86-2.62-5.51,2-12.76.89-4.92-4.24.38-3.6,2.77-4.36,7.19-2.29,10.81.38,2.42-11.26,14.4-11.63,5.89-1.81,14.42-7.1,2.39-6.65-6.76-1.72-15.94,11.29-19.69,2.73-3.67.33-11.27-.27-5.45-4.57-11.25-3.03,12.82-12.69,16.73-13.46-4.81.3-7.48-5.74-2.13-7.76-5.25-4.02-13.54-6.26-4.87-12.35.59-6.04-7.97-.04-8.87-7-14.49-9.22-28.31-5.71-45.59-5.51,3.5,1.13-32.84-8.25-11.97-10.76,3.83-.72,48.62-2.9,42.43.32,74.21-20.88,89.16-91.9,86.89-164.79,2.95-4.17,10.26-21.59,15.58-12.88,3.47-5.36,10.03-10.96,5.87-.04,11.59-15.91,2.54,24.7,12.57,2.55,2.44-2.29,4.27-2.16,5.6,1.04,3.3.62,5.74,3.32,5.85,6.76,11-.45-8.06,22.84,3.76,11.52,1.04-7.6,15.58-13.83,8.03-3.32-3.53,14.23,2.73,10.06,9.72,2.28,4.47-.5,2.51,4.46.92,6.66,7.7,1.07,11.34,2.62,14.65-8.01,6.55-4.7,4.4,4.4,2.67,8.42,4.89-1.22,4.3,4.1,1.24,6.53-1.69,8.57.61,13.69,6.94,5.1,14.49-35.59,8.33,87.76-5.37,94.57Z"/>
          <g>
            <path class="st60" d="M1360.68,991.01c-23.23,61.93-74.48,121.14-139.65,140.97,56.81-24.25,115.63-90.21,139.65-140.97Z"/>
            <path class="st31" d="M1187.23,1029.65c12.18-.36,17.28,5.13-.13,3.94-5.36,1.5-13.8,1.5-19.17,1.07-4.64-1.3-4.96,3.88-7.91-1.33-15.87-.24,22.87-.03,27.21-3.68Z"/>
            <path class="st115" d="M1260.89,961.71c.55-1.71-.13-3.22,1.41-4.56.14,1.24-.23,3.58-1.41,4.56Z"/>
            <path class="st115" d="M1265.96,941.35c.54,7.25-5.02,13.43-2.02,2.35.58-2.4,2.5-13.98,2.02-2.35Z"/>
            <path class="st31" d="M1226.31,1068.09c-1.51,2.22-4.29-1.44-2.59-2.29,5.22-.03,9.51-2.68,8.05.39-1.33,2.79-3.63-1.11-5.45,1.9Z"/>
            <path class="st97" d="M1312.32,863.17c1.19,2.69-3.88,3.3-4.8,1.32-1.03-3.26,3.25-3.36,4.8-1.32Z"/>
            <path class="st97" d="M1364.76,904.14c-1.08-.91-.41-5.11,1.52-5.09,1.26.18,1.43,3.84-1.52,5.09Z"/>
            <path class="st31" d="M1215.2,1062.64c1.54,1.46-1.51,3.78-2.6,2.09-1.18-2.08-.27-4.34,2.6-2.09Z"/>
            <path class="st31" d="M1234.86,1102.52c.45,1.57-3.46,3.39-3.99,1.24-.16-.98,2.29-2.14,3.99-1.24Z"/>
            <path class="st31" d="M1227.84,1077.26c-.81,2.06-7.63,3.36-4.49-.13,1.36.45,2.14.22,4.49.13Z"/>
            <path class="st31" d="M1220.11,1083.97c1.35-.94,1.63-.21,2.14.36,1.98,2.78-5.17,2.3-2.14-.36Z"/>
            <path class="st31" d="M1203.83,1040.96c1.13-2.19,3.24.26,1.89,1.35-.56.11-2.08-.79-1.89-1.35Z"/>
            <path class="st31" d="M1234.01,1063.71c1.37-1.25,1.57,1.43.94,1.99-1.93.74-2.03-.73-.94-1.99Z"/>
            <path class="st97" d="M1305.52,875.17c-1.01-.14-1.78-1.76-1.03-2.74.45-.13,1.99,1.01,1.03,2.74Z"/>
            <path class="st31" d="M1203.2,1044.9c.18-.36,2.76-.4,1.7.65-.81,1.29-2.65.74-1.7-.65Z"/>
            <path class="st97" d="M1296.39,866.45c.51-.09.67,1.68-.03,2.05-1.6.5-1.46-1.79.03-2.05Z"/>
            <path class="st97" d="M1312.67,871.68c2.15-1.17,1.12,2.04.2,1.98-.56-.23-.6-1.58-.2-1.98Z"/>
          </g>
        </g>
        <g>
          <path class="st31" d="M1121.13,1025.04c8.72,4.28,24.45,4.48,32.26,8.46-29.28-1.53-7.52,7.3,7.03,7.88,9.47.76,20.12-2.71,29.37-1.14,3.15,7.04,1.3,1.19,11.44,2.6-1.89,4.95-9.37-1.96-5.99,3.21,7.63,1.37,4.57-.35,7.98,4.51,10.08-.92,7.89,4.74,2.85,10.26,1.15,2.2,5.94-.02,5.25,4.2,4.48,1.15,6.15,4.23.27,5.34,1.64,5.78,5.9,2.47,10.53,3.57-1.35,2.67-4.85,2.29-6.72,3.35-2.34,1.32-2.91,1.88-5.85,1.48-5.49.79-7.58,6.76-12.72,8.11,12.2,3.91,10.43-10.26,23.93-7.62-2.37,3.24-10.18,3.42-10.7,4.47-1.25,2.53,1.49,3.74,1.56,4.19-1.15,2.94-4.65-.7-6.8,1.61-2.14.77-5.19-.27-7.06,2.15,5.94.79,10.07-.86,8.19,2.9,8.31.2,15.17-8.12,24.72-5.1,2.77,3.34,5.24-.55,9.15.46-1.33,4.41-5.16,3.26-8.69,1.69,2.47,8.9-6.37,4.48-13,8.13-11.99,9.63,7.99,3.35,11.9,4.29-2.4,2.8-5.18,2.69-7.59,3.64-12.19-.93-4.97,2.87-13.15,2.5-11.14-1.4-3.62.09-11.75,4.55,4.57,1.91,8.12-3.85,10.32,2.13,7.44-1.21,11.96,3.42,11.17-3.97,13.71,1.23,29.07,12.45,1.94,7.16-3.72,1.91-13.16,1.66-14.62,6.19-.97,2.56-6.68.69-8.26,3.16-.14,4.24,7.04,6.38,10.3,5.42-6.33.82-14,5.32-20.41,4.03,6.36-4.38-10.48-9.05-13.16-4.44-1.86-.53-5.12-3.86-7.18-.53,4.5,1.4,2.96,3.7-1.04,3.91-10.13-7.43-22.55.58-34.26-5.09-1.71,2.88-3.95,1.84-6.92,1.44.41-3.26,8.65-5.3,12.45-4.82,13.13.73-2-1.88,7.16-6.33-7.18-.13-6.39-3.7-10.71-2.6-3.85-3.86,10.39.22,6.05-4.78-4.06,3.71-9.83-3.75-2.68-5.07,1.83-.51-.13-6.7,2.35-2.9,6.58-.11-1.41-5.42-4.54-4.54-1.85-.88-3.18-4.05-5.88-3.61-.82-4.8,8.82-.68,11.09-1.07-1.05,2.27-.29,4.93,1.85,4.63,1.4-2.56.57-2.58-1.35-4.46,1.61-1.53,4.39-3.81,5.95-1.4,4.5-2.7-12.81-3.91-15.5-6.84,4.48-5.62,12.39,2.38,17.22-2.61.83-2.76-4.32.02-6.31-2.9.17-1.98,2.78-.71,3.8-.71,4.79-.13,13.96.56,18.48-1.46-5.97-1.29-27.91-2.95-15.01-11.3-15.59-6.24-8.02,6.66-13.76,1.36-5.49-8.99-17.07-2-17.95-8.94-6.22,4.72-3-.85-5.31-2.58-2.12,4.82-4.28-.2-2.97-3.14,3.99-.46,19.88-1.32,6.58-4.1,0,0-1.07-5.93-1.07-5.93,15.69,5.04,4.66-1.74-1.83-5.98.41-1.42,1.57-3.08.32-4.96,5.45-1.08,8.17,1.76,12.7-.14-2.44-2.42-5.89-1.58-5.91-2.98-.02-2.24,4.42-.12,7.96-2.08-2.94-5.53-9.65,1.67-14-3.03-2.18-9.79,8.24,1.42,6.53-3.85Z"/>
          <path class="st81" d="M1126.02,1026.56c6.98,2.13-1.55,1.59-3.34.57,1.34-.73,2.37-.46,3.34-.57Z"/>
          <path class="st81" d="M1128.78,1049.74c-1.76.76-3.05.27-3.8-.98,1.76-.76,3.05-.27,3.8.98Z"/>
        </g>
        <path class="st24" d="M1299.14,389.21c-1.93.16-4.25.32-5.31-1.62,1.75.35,3.81.42,5.31,1.62Z"/>
        <path class="st24" d="M1345.65,404.89c-1.53.46-3.5.23-3.85-1.49l3.85,1.49Z"/>
        <g>
          <path class="st24" d="M1302.93,389.84l38.44,13.28c-5.07-.27,3.6,3.87-.98,5.28,4.56.54,7.95-.36,12.06,1.71,8.94,3.07,6.67,10.66-1.4,3.92-2.58-1.48-3.83,5.28,14.24,6.35,0,0,1.12-2.87,1.12-2.87,1.02,1.05,7.23,1.92,7.61,3.64,1.26,3.49-9.42-3.27-5.77,4.62,6.29-3.85.11,7.11,5.63,10.33.09,9.26-.07,19.01-.85,28.63,1.25,11.98.33,24.14.91,35.95.45,3.85-3.22,17.73.84,20.05-1.25,2.71-1.25,5.81-2.86,8.4,1.83,2.61.94,4.23-1.36,6.63,3.71,16.15-3.44-.84-7.52-2.8,6.66-2.13,8.98-5.4.73-5.21-6.15-8.81-3.72,2.45-8.5,3.13-7.69-10.45-21.23-17-31.26-24.54-6.43-8.75-9.06-.54-2.29,4.59,8.39-2.64,4.05,5.36,10.35,7.25,5.95-.3,4.97,5.01,12.58,6.9-1.52,2.47-.95,3.51,1.18,4.51.95,9.11-8.46,4.63-9.53-1.92-5.81-4.4-12.39-10.24-7.27.77,1.23.65,2.61.33,3.65-.95-1.49,3.67,3.38,7.44-1.38,6.23-.38-1.67-2.3-3.5-4.67-4.12-1.98-4.48-4.9-7.45-7.97-11.59-11.25-3.17,3.37,9.45,2.54,9.09-7.82,4.1-1.62,2.95,4.86,3.91-1.51,4.22-.38,6.34,3.53,3.68,1.27,4.91,3.44,1.23,7.17,1.77,1.63,2.4-1.76,5.37-4,3.34-2.21,14.1-12-6.86-18.32-7.4,8.91,8.44-6.29,8.1-2.61,11.02,3.7-.85,4.07,1.45,5.75,3.9.99.29,8.39.15,3.4,2.4-.82.41,1.42,6.05-.87,6.06-5.27.03-6.19-7.55-10.22-10.01-3.46-3.58-15.08-4.02-9.57-10.77.39-.72-.76-2.95-1.92-3.17-5.48,3.46-11.6-3.65-11.16,2.43,3.84,1.21,3.25,6.95,7.44,8,4.92,3.87-1.43,6.68-2.29,9.85,10.43,3.47,4.82-10.46,10.78-3.24-1.7,8.77,16.29,13.62,9.67,20.73-5.46-3.23,5.03,10.18-3.53,8.93-2.89-.66.85-7.9-5.1-7.5,7.36-9.35,1.54-4.46-3.9-15.78,0,0-3.77,1.23-3.77,1.23,13.75,18.18-12.55-7.94-4.19,16.16-4.46,2.52-17.07-11.93-10.74,3.06.1.77-1.55,1-1.97,1.31-2.15,2.73.39,6.06,3.14,7.16-11.76,0-2.73,5.36-1,11.34,2.61,1.51,6.29,8.06.21,6.07-2.87-12.41-9.46,9.94-7.58-13.97-1.08-25.7-.38-59.34-1.08-85.6.35-37.03-1.76-80.34.25-117.08,7.66,3.43,16.43,1.2,18.18,5.87-5.2-.64-8.93-.04-7.31,1.39,7.68.37,17.23-.61,25.13.62-.89-.6-7.34-.97-6.65-2.94Z"/>
          <g>
            <path class="st97" d="M1329.11,497.52c-5.64,12.98-29.77-20.2-11.94-4.07,10.04-.48,4.38,6.43,11.94,4.07Z"/>
            <path class="st97" d="M1344.39,471.74c3.38,6.91,1.21,10.26-5.02,2.66,4.18-2.17,4.15-9.04-1.24-9.41.18-3.35,17.49,3.79,6.26,6.75Z"/>
            <path class="st97" d="M1312.82,535.25c2.28,4.5-12.03,8.45-5.28,2.07-2.74-1.18-4.61-2.97-2.29-5.34,1.69,3.66,4.01,4.39,7.56,3.27Z"/>
            <path class="st97" d="M1349.48,494.6c2.93-.11,9.48,1.39,7.54,4.48-2.97,1.91-7.7-.39-7.54-4.48Z"/>
            <path class="st97" d="M1360.54,484.57c-2.41-2.16-5.5-2.03-6.08-3.51-.22-4.22,11.65.04,6.08,3.51Z"/>
            <path class="st97" d="M1298.85,522.72c-2.62-.12-8.35-.57-6.2-4.18,3.39-.44,5.96.37,6.2,4.18Z"/>
            <path class="st97" d="M1345.98,493.5l-4.6-3.48c.66-6.95,6.94-1.74,4.6,3.48Z"/>
            <path class="st97" d="M1340.49,458.95c-2.98,2.75-5.91-1.8-8.32-3.24,2.42-4.44,5.85,1.98,8.32,3.24Z"/>
            <path class="st97" d="M1353.17,482.71c2.55,2.69-3.35,4.15-4.52,3.55-2.75-3.27,1.15-4.16,4.52-3.55Z"/>
            <path class="st97" d="M1366.45,507.29c1.31.71,4.18,2.4,2.06,4.07-4.54,2.15-7.56-8.96-2.06-4.07Z"/>
            <path class="st97" d="M1368.78,475.46c-2.53-1.13-4.52-2.13-6.76-3.98,2.97-4.12,6.46-.88,6.76,3.98Z"/>
            <path class="st97" d="M1355.66,510.87c-3.82,4.66-5.93-3.51-7.87-5.38,3.37.87,5.59,2.61,7.87,5.38Z"/>
            <path class="st97" d="M1349.94,517.79c-.46,3.79-7.29-.43-4.61-2.75,1.19-.88,4.61,1.02,4.61,2.75Z"/>
            <path class="st97" d="M1361.12,504.72c-1.27.31-3.61,1.14-4.79.27-1.64-3.07,5.35-5.5,4.79-.27Z"/>
            <path class="st97" d="M1365.08,494.07c.47,1.39-.69,2.16-1.61.84,4-4.15-3.15-7.74,2.25-8.63-2.6,3.19,3.98,5.71-.64,7.79Z"/>
            <path class="st97" d="M1333.19,485.42c-1.29,2.45-5.12,1.1-3.74-1.69.57-2.56,4.29-.54,3.74,1.69Z"/>
            <path class="st97" d="M1312,524.01c-6.51.91-1.42-6.52.22-.27.12,1.08,1.11,1.3,1.92.97,2.25,1.08-1.27,3.78-2.14-.7Z"/>
            <path class="st97" d="M1306.56,526.86c-1.97.77-5.67-.4-5.31-1.44,1.15-2.24,3.95-.45,5.31,1.44Z"/>
            <path class="st97" d="M1306.38,520.07c-2.12,1.06-2.37.27-2.68-2.18.4-1.88,3.89.68,2.68,2.18Z"/>
            <path class="st97" d="M1367.21,431.42c2.1-1.47,3.02,1.49,1.93,2.79-1.3.9-3.7-1.22-1.93-2.79Z"/>
            <path class="st97" d="M1309.76,507.35c.44-.07,1.51-.11,1.65.27,2.13,4.74-5.63,1.71-1.65-.27Z"/>
            <path class="st97" d="M1298.41,488.05c.96,1.58-1.82,2.59-2.69.95-1.26-2,1.21-2.86,2.69-.95Z"/>
            <path class="st97" d="M1363.08,513.23c1.65,2.13-3.37,3.03-3.15.82.16-.92,2.04-1.7,3.15-.82Z"/>
            <path class="st97" d="M1315.98,499.94c-1.27,1.29-3.83-1.5-2.4-2.55,1.41.44,3,1.43,2.4,2.55Z"/>
            <path class="st97" d="M1323.06,482.32c-1.5.86-3.75-.57-1.56-1.87.95-1.23,3.34.64,1.56,1.87Z"/>
            <path class="st97" d="M1324.23,456.08c2.02,1.86-4.49,1.64-2.44-.16.58-.47.97-.95,2.44.16Z"/>
            <path class="st97" d="M1300.29,515.7c.16,2.89-3.59.51-2.59-.65.83-.5,2.46.12,2.59.65Z"/>
            <path class="st97" d="M1360.41,467.36c-2.09,1.8-2.55-.41-1.42-1.42.59-.79,2.49.08,1.42,1.42Z"/>
            <path class="st97" d="M1338.14,508.97c.99-1.25,2.35.12,2.04,1.37-.55.98-2.65.02-2.04-1.37Z"/>
            <path class="st97" d="M1327.3,491.99c-1.04-.49-1.78-1.41-1.1-3,.73.43,1.83.94,1.1,3Z"/>
            <path class="st97" d="M1305.93,450.14c.56-.38,2.64-.4,2.05.96-.67.99-2.99.53-2.05-.96Z"/>
            <path class="st97" d="M1300.66,447.94c.56-.46,2.66-.46,2.08.91-.7,1.03-2.92.45-2.08-.91Z"/>
            <path class="st97" d="M1315.89,484.69c.51-.1.66,1.72-.03,2.06-1.6.47-1.45-1.78.03-2.06Z"/>
            <path class="st97" d="M1368.15,521.8c.97-1.17,1.86,1.49.94,1.73-.87.23-1.65-.73-.94-1.73Z"/>
          </g>
        </g>
      </g>
      <g>
        <path class="st42" d="M679.06,779.4c-24.12,33.7-59.87,68.22-83.59,95.2-15.14,21.6-140.7,161.27-149.82,125.48,48.14-28.61,86.55-72.14,123.7-113.48,39.59-45.13,80.67-91.02,120.71-135.78,3.16-4.47,11.01-12.84,14.91-16.72,2.48-2.66,7.12-11.08,10.81-10.52,1.03-1.12,2.54-3.11,4.33-.96,1.95-1.5,2.97-7.47,6.14-6.95-4.32,6.32-10.66,14.74-12.34,19.57-.22.64-1.13,1.38-2.48,1.27.55,5.84-6.15,3.09-6.2,8.5-5.14-1.62-1.9,5.95-6.85,4.2-1.2,1.45-21.08,21.56-21.91,23,1.15,4.24,2.39-2.43,3.8-.91,2.07,2.33-8.24,7.27-1.22,8.09Z"/>
        <path class="st43" d="M1104.65,517.14c16.69,4.17-26.66,20.18-30.11,24.15-15.55,9.26-30.48,22.65-44.57,34.15-91,89.53-171.88,190.13-258.43,283.85-10.87,12.91-25.25,29.01-37.28,40.8-4.64-1.21-13.69,16.24-15.65,6.91,127.93-126.72,228.73-299.42,386.05-389.86Z"/>
        <path class="st106" d="M306,1049.25c7.08,3.53-10.77,122.14,10.5,112.44,93.69,16.75,204.23-43.35,270.95-108.05,2.59-3.38,10.04-11.56,11.77-3.61-14.91,16.97-38.27,36.98-55.84,51.38-64.58,50.96-149.02,76.07-230.84,71.22-8.25.36-24.92-5.76-8-8.88-2.06-1.87-.14-159.4,1.45-114.51Z"/>
        <path class="st17" d="M301.55,1034.22c7.53,39.83.1,86.35,2.49,128.61,1.45,3.31-6.98,2.63-6.15,7.16-3-13.38-8.13-155.72,3.66-135.77Z"/>
        <path class="st23" d="M1240.5,369.72c-10.89,7.48-6.93,5.3-20.1,4.21-16.23-2.06-58.25,1.8-67.53,1.65-32.77-9.98,83.12-14.42,87.62-5.86Z"/>
        <path class="st44" d="M1232.24,375.63c1.16,26.5.14,93.26.69,120.81-100.46-6.92-188.53,40.98-253.65,120.64-89.05,98.42-186.62,208.42-275.04,306.99-75.19,82.16-145.27,180.7-253.38,220.52-.35-1.65-42.76,16.8-35.29,8.3,135.73-32.46,216.62-158.12,306.07-251.89,31.43-35.72,62.22-70.16,91.98-103.34,96.07-96.72,172.3-229.22,302.16-288.17,160.62-51.79,102.7,61.63,116.46-133.86Z"/>
        <path class="st39" d="M768.06,762.18c-10.46-18.63-4.09-56.6-14.38-67.03,5.93-4.76,49.64-59.93,45.47-39.61-.39-.17-.93-.86-1.58-1.56.56,9.52-14.42,1.13-2.91,12.87-.18,2.9-4.39,3.78-4.34,9.86-5.16,19.65-16.74,34.48-17.9,54.4-4.75,10.23-.53,21.74-4.36,31.07Z"/>
        <path class="st99" d="M768.06,762.18c-7.88-1.5-18.12-16.77-26.28-24.51-1.73-6.8-13.78-7.96-12.11-15.35,10.12-10.09,20.06-27.85,32.48-29.48,2.2,3.91-3.01.55-3.92,2.71,2.87,2.9.58,9.09,2.47,12.2-.07,18.7,3.58,33.58,7.36,54.44Z"/>
        <path class="st71" d="M765.1,761.03c-11.69-2.03-24.75-17.64-36.99-23.13-11.36-1.98-1.95-11.32,1.56-15.58,10.38,12.39,25.54,26.26,35.43,38.71Z"/>
        <g>
          <path class="st100" d="M1148.53,369.97c-.88,9.72,94.95-4.25,79.98,6.55-119.68-11.25-236.81,53.5-315.79,144.59-12.57,12.85-194.15,217.36-233.65,258.3-14.09-4,12.45-24.19,19.12-31.48,2.75.62,26.55-28.62,18.24-23.05-5.98,1.28,2.59-6.51,3.27-7.49,5.25-6.65,13.03-14.83,18.76-21.27,2.62-2.38,1.72,2.42,4.29,2.22-.47-3.07.64-4.77,3.78-3.44-.17-6.17,10.1-3.23,8.37-11.25,5.61-6.88-8.33,6.03-2.91-2.87,11.44-12.76,23.33-27.51,35.51-39.57,28.81-33.46,59.76-66.04,88.78-99.42,70.99-81.5,160.32-160.97,272.25-171.81Z"/>
          <g>
            <path class="st42" d="M723.53,712.37c2.1-2.74,4.52-4.97,6.85-7.5-.71,2.76-4.13,6.5-6.85,7.5Z"/>
            <g>
              <path class="st42" d="M738.45,696.11c4.18-3.53,14.65-20.86,19.63-14.6-.95,2.56-3.31,4.63-1.8,8.48-2.8-.36-3.81.76-4.51,2.77-6.79-1.79-.8,6.72-7.92,3.1,1.22,3.79-.9,6.87-2.76,3.42-2.57,1.82.02,3.82-2.58,5.86-1.76-4.47-2.65.76-1.33,2.38-.8.87-2.26.61-2.22-.9-.89-2.06-2.38.16-2.15,1.63-7.21,3.73,10.9-10.84,5.64-12.16Z"/>
              <path class="st23" d="M1213.51,375.77c.69-.51-34.75,1.1-29.96-.77.75.64,30.24-1.29,29.96.77Z"/>
              <path class="st23" d="M1182.21,376.17c1.4-.83-49.17,7.34-39.57,3.65,9.32-.75,30.6-5.24,39.57-3.65Z"/>
              <path class="st23" d="M1228.5,376.51c-3.23-.51-11.69,1.09-14.45-.72,1.01.36,14.41-.99,14.45.72Z"/>
              <path class="st42" d="M729.2,710.43c.97-.76,2.72.06,1.42,1.08-.43,2.28-2.59.31-1.42-1.08Z"/>
              <path class="st42" d="M728.11,716.19c-1.99-.02-1.41-1.64.34-2.67.62.08.64,2-.34,2.67Z"/>
              <path class="st42" d="M688.58,768.91c-.6-2.06,1.5-2.23,2.31-3.1-.27,1.41-1.38,2.15-2.31,3.1Z"/>
              <path class="st42" d="M709.59,745.67c-.2-1.55.86-2.77,2.35-3.05-.25,1.42-1.45,2.09-2.35,3.05Z"/>
              <path class="st42" d="M681.83,776.4c-.21-1.56.89-2.78,2.41-3.02-.41,1.25-1.31,2.28-2.41,3.02Z"/>
              <path class="st42" d="M739.57,711.17c-.47-2.02,1.45-2.18,2.32-3.13-.18,1.52-1.45,2.15-2.32,3.13Z"/>
              <path class="st42" d="M717.11,737.22c-.7.82-1.42,1.77-2.28,2.4-.28-1.46.89-2.64,2.28-2.4Z"/>
              <path class="st23" d="M1139.37,381.17c.81,1.3-3.49.56-3.83.83.6-1.46,2.55-1.11,3.83-.83Z"/>
            </g>
          </g>
        </g>
        <path class="st78" d="M324.76,1038.73c-5.17,1.45-16.96-3.25-19.52.84-.75,4.01,1.48,120.57-.69,124.18-3.8,3.54-.37-121.38-1.45-121.09-1.77-3.06,1.15-6.29-1.55-8.43,5.7,5.41,16.64,1.7,23.21,4.51Z"/>
        <path class="st104" d="M415.13,1154.31c-29.78,11.25-75.93,13.32-108.35,8.09,36.44,2.13,72.72-.02,108.35-8.09Z"/>
        <g>
          <path class="st5" d="M734.25,900.09c-42.45,47.69-85.7,99.59-129.87,144.63-4.6,9.84-11.18-1.35-11.59,7.34-3.04-1.95-4.98,2.13-3.41,5.2-4.93-5.2-8.49,10.3-12.42,6.59,45.16-50.16,95.1-104.57,142.19-156.28,2.95,3.33,11.02-9.69,13.87-10.9,1.12,1.84-.99,2.85,1.22,3.41Z"/>
          <g>
            <path class="st106" d="M611.28,1038.06c-2.11,3.01-1.36,1.07-3.71.81-6.04-2.71,1.98-5.93,3.71-.81Z"/>
            <path class="st106" d="M616.51,1032.02c-2.05,5.85-2.78.33-7.03,2.49,1.89-6.23,3.42-.23,7.03-2.49Z"/>
            <path class="st106" d="M604.12,1041c-3.27-.17,1.51-4.28.36-.38,3.77,1.34.8,3.43-.36.38Z"/>
            <path class="st106" d="M620.26,1028.99l-2.34,2.23c-1.57-2.54.09-2.96,2.34-2.23Z"/>
            <g>
              <path class="st106" d="M611.11,1028.28c.55-2.48,2.97-3.75,4.56-5.45-.09,2.74-2.92,3.8-4.56,5.45Z"/>
              <path class="st106" d="M596.89,1047.08c.1-1.6,1.12-2.46,2.34-3.26.46,1.49-.09,3.14-2.34,3.26Z"/>
            </g>
          </g>
        </g>
        <path class="st36" d="M1066,533.34c-55.45,38.55-134.33,133.21-180.65,183.29-4.63.97-3.19-3.43-6.34-6.51-.48-7.94-19.52,12.18-19.93.74-18.47,9.28-33.92,22.15-50.39,30.01-21.13,2.15-52.99,51.24-29.3-6.48-.85-11.12,8.74-19.74,14.44-28.62,2.08,4.26-2.42,4.74-1.85,7.85,2,1.76,8.33-9.43,10.4-11.9,4.22-.8.91-4.67,3.77-6.84,2.27-.14,4.89,2.13,2.94-1.75-1.24-5.81,4.14-11.99,7.47-16.33-1.77-1.77-7.57-2.47-2.67-3.17,6.4,4.22,16.16-20.31,22.04-22.3,1.44,2.63-9.58,15.22-10.6,18.23,3.71-.35,5.44-4.27,8.91-4.37-.31-3.22,3.65-4.99,1.38-7.58-.27-2,2.65-1.04,3.18-1.79l3.1-4.36c10.3-15.5,19.48-26.47,29.06-39.25,2.09-.87,2.01-2.1,1.47-3.96,1.05-2.89,8.83-6.92,10.66-10.15,10.05-4.85,25.8-35.09,32.88-33.34-10.16,11.68-20.1,27.33-32.77,36.32-5.73,12.79-15.47,25.35-23.71,37.39,0,3.82,9.43-10.26,10.48-8.02-.27,4.08-7.92,8.75-10.51,11.72-1.91-.5-3.84-.87-5.02,1.49-1.56,3.76-10.36,9.12-2.18,11.54,2.39,4.41,7.14-7.14,8.67-8,9.16-12.48,27.79-29.37,38.41-41.08,5.34-3.31,11.35-10.05,14.38-15.41,3.89-6.66,17.32-7.37,10.68-16.2,3.06-4.67,2,3.25,4,2.41,7.54-8.04,20.7-19.31,28.61-27.12,8.83-1.67-18.63,19.88-19.79,22.17-16.53,19.45-33.89,39.44-52.03,57.42,11.06-3.42,18.67-18.56,28.94-25.16.01,6.39,9.88,5.43,9.76.71-.6-2.51-9.34.34-5.15-3.9,1.23-.14,6.24,2.65,3.21-.82-5.29-2.23,6.19-15.15,6.75-12.72.69,2.48,4.69,7.64,7.26,2.96-1.37-9.98-12.38.32,2.34-14.43,4.87-4.62,8.93-10.53,15.27-13.52,5.38,3.82-3.99,7.57-7.31,9.33-7.5,14.95,5.62-2.05,11.65-3.91,1.25,2.79-5.87,6.81-8.13,9.09-16.61,20.66,7.75-2.95,12.96-8.05-.39-2.49-7.64-2.28-3.39-5.35,4.4,2.56,12.39-7.09,15.63-10.51,1.97,1.95.67,4.53-1.67,5.36-.97,4.61-7.39,4.37-7.74,7.81,1.56,2.97.39,3.59-2.02,5.09.85,5.75-7.89,1.64-6.87,8.07-13.68,19.97,34.87-29.66,40.94-33.34,11.3-10.16,33.3-27.34,45.25-33.17,1.7,4.78-29.89,21.15-33.63,25.91-11.01,8.64-24.87,22.4-34.07,32.84-2.75,4.65,3.55.28,4.24,3.36,1.62,3.41-4.97,3.18-3.41,7.7,11.69-9.37,22.13-18.53,34.17-27.9,1.87-.75,10.53-13.43,12.98-9.59-10.49,13.19-35.46,27.1-43.12,40.51,6.25-4.08,13.47-10.52,19.09-15.41,4.55.3,13.46-6,11.8-10.7,7.86.84-.92,4.77-1.52,8.72,8.21-.87,7.79-9.62,14.44-12.76,9.39-6.25,20.29-14.47,27.53-20.93,4.44-5.01,8.55,1.06,9.41-5.37,3.53,2.36,4.92-4.33,7.82-.98-.12,2.86-4.79,2.68-2.57,4.99Z"/>
        <path class="st12" d="M883.7,716.34c-.49,4.07-80.34,98.48-70.54,78.07-17.94-9.97-25.41-17.8-43.72-29.5.01-4.95,10.95-8.23,14.39-11.71,5.07-3.57,12.39-9.98,17.1-12.73,5.92,3.21,3.81-1.16,10.41-1.83-1.24-4.74,7.88-3.9,10.18-4.92,7.81-9.56,26.51-17.89,38.72-25.2.17-.09,5.72-5.35,7.74-4.52,3.41,2.38-10.02,6.31-7.67,8.24,2.47,2.62,5.11-1.79,6.93-2.06,4.86.67,8.69-4.77,14.05-4.18-2.72,3.21,2.23,7.37,2.41,10.34Z"/>
        <path class="st111" d="M1223.17,496.31c-170.76-17.1-266.5,153.33-370.89,259.06,4.31-12.19,22.94-26.17,31.41-39.04,95.62-105.65,201.92-248.03,339.47-220.03Z"/>
        <path class="st21" d="M769.44,764.91c12.74,10.52,20.74,27.79,28.61,41.36,3.59-.5,6.46,1.2,2.41,3.62-4.29,10.83-16.92,19.97-25.03,30.15-7.79,7.99-1.99-23.72-2.86-28.76-1.45-11.51-9.07-40.05-3.14-46.37Z"/>
        <path class="st77" d="M765.1,761.03c6.64,7.64-15.98-5.65-21.38-3.41-1.35-1.5-2.51-5.15-4.86-2.61-3.83-2.46-4.13-2.51-5.16,2.28-.37.34-2.42-1.32-6.23,2.54-4.14-1.58-6.57-2.99-7.55,2.26-2.36-.92-1.78-3.37-1.53-5.18-2.84-1.32-1.8-3.61-1.43-5.71-1.28-2.2-4.52,3.19-7.72,2.25-2.43-1.37-2.05-3.85.18-4.92,6.11-5.41,10.36-19.13,19.35-11.97,12.38,6.51,24.35,17.94,36.31,24.47Z"/>
        <g>
          <path class="st3" d="M1096.68,391.89c1.86.58-1.86,2.5-1.75,2.34,1.01-1.55,5.16-2.79,5.58.07.52,3.56-10.25,6.54-11.93,6.02-1.82-2.84-2.58-2.86-2.3-.07-2.46,1.44-1.15,1.87,3.93,1.3,7.6-6.7,4.99,9.34.4,10.15,7.88-.56-1.6,8.96-3.7,10.88,16.11-5.38,11.63,6.83-.62,5.43-.83,5.55,2.54,4.46,5.49,4.92-1.89-4.48,2.55-5.6,6.23-4.11,12.66,2.24-13.73,22.43-11.15,10.85-5.02,2.09,4.5,7.33-6.97,9.9-4.39,2.84,5.39,5.51-4.48,8.36-13.58,1.51-8.67,1.93-19.91,10,5.52-1.4,51.59-30.07,47.5-16.81-17.24,5.33-12.67,10.08-25.38,18.71,11.47-.84-1.05,7.75-3.59,9.3,8.3-1.61,12.36,7.38,5.32,12.87,4.56,2.1,3.28,3.87.01,6.5-.65,1.29-11.98,4.56-4.35,4.52,8.03-3.97,6.38,4.02-.49,5.2-10.14,6.27-9.99,6.81.44,1.61,4.3-5.51,9.95,1.41,2.72,3.64-6.27,4.45-3.73,3.72,7.61-2.19,8.05.29,4.27,8.39-2.49,6.94l-.58,1.65c9.39,2.37-12.75,13.68-16.2,13.48-4.93-3.85-5.64,1.32-12.13,1.16-12.74,11.1-27.42,20.1-37.98,31.5-4.46,5.9-10.29,2.32-16.59,6.18-5,7.44-33.17,23.95-14.84,5.42-4.93,5.58-15.84,7.82-6.29-1.64-10.65.08-1.28-8.3,2.52-12.76,11.29-11.68-17.5,18.21-23.77,21.6-5.03,7.01-7.17-3.56-1.49-5.91-3.99,3.89-19.99,14.89-9.11-.16-8.74,3.41-1.81-4.99-1.17-7.71-1.25,1.05-12.34,11.62-12.03,12.43,10.14,6.44-.62,16.53-5.25,5.55-5.06,4.1-5.98,8.33-3.86,13.26,5.2,6.98-7.61,11.41-10.74,4.69-7.53,3.8-24.21,30.88-28.63,20.84,11.7-12.95,25.19-24.2,35.21-38.46,9.86-14.29-15.36,16.17-19.53,17.92,3.94-3.05-35.33,34.15-44.2,49.26-1.3,3.18-8.91-2.16-9.23-3.64-.34-1.6,8.17-15.16,12.3-12.48,1.85-12.69,16.82-25.29,22.25-38.53-5.83,1.72-62.3,91.72-55.05,63.25-6.43,7.67-13.05,16.68-16.21,26.11,1.62,4.67,1.34,6.6-3.78,5.4,1.05,3.6-14.22,25.05-16.01,16.55-9.73,3.98-18.36,64.93-23.83,49.55,3-15.74,2.98-42.92,12.86-62.04,4.37-12.4,15.89-28.9,9.45-39.73-11.85,4.76,13.83-18.87,13.49-19.9,86.72-92.2,167.66-210.68,294.31-249.13Z"/>
          <g>
            <path class="st83" d="M1075.82,428.62c-1.12.77-15.56,10.69-15.6,6.32,1.25-3.37,21.94-10.43,15.6-6.32Z"/>
            <path class="st83" d="M1070.64,476.6c-1.3.62-4.35-1.14-5.68,2.15-4.52-5.81,10.37-8.51,5.68-2.15Z"/>
            <path class="st83" d="M1057.04,489.22c-3.66,3.16-6.17,6.06-6.26,3.06-.05-1.52,4.19-5.37,6.26-3.06Z"/>
            <path class="st83" d="M1032.91,511.45c-4.05.77,3.08-6.17,5.33-5.05-1.01,2.36-3.05,3.54-5.33,5.05Z"/>
            <path class="st83" d="M1036,497.99c-6.56-3.67,1.82-4.85,4.37-5.83-2.1,1.79-4.28,2.55-4.37,5.83Z"/>
            <path class="st83" d="M1056.69,502.35c-1.33,3.13-4.89,5.29-4.51,1.37.43-1.59,5.12-2.88,4.51-1.37Z"/>
            <path class="st83" d="M1070.46,525.21c.8-.53,1.55-.13,2.38.61.87,2.56-5.1,2.61-2.38-.61Z"/>
            <path class="st83" d="M1062.87,470.62c-.64.65-2.14,1.93-2.93.82-.83-1.12,4.85-5.16,2.93-.82Z"/>
            <path class="st83" d="M1070.45,452.87c-3.51.71-1.3-2.57.89-2.21,1.05.57.38,1.62-.89,2.21Z"/>
            <path class="st83" d="M1049.18,511.61c.21.86-2.84,1.33-2.96-.17-.06-.83,2.55-1.5,2.96.17Z"/>
            <path class="st83" d="M1078.48,435.29c1.81-1.15,1.77,2,.28,1.87-.75.21-1.3-1.09-.28-1.87Z"/>
            <path class="st83" d="M1056.03,473.92c1.26-.49,2.04,1.43.92,2.05-1.25.93-2.43-1.19-.92-2.05Z"/>
          </g>
        </g>
        <g>
          <path class="st83" d="M1139.39,381.84c4.82-.34,45.01,1.8,22.17,8.01,8.16,1.19,6.77,5.59.73,8.76,4.37,1.01,20.59-1.14,13.55,5.56-26.75.36,1.08,9.8-8.04,15.5,2.36,3.61-2.16,6.62-5.24,3.69-2.28,3.33-7.95,6.46-11.79,4.89-4.49,1.39-4.87,2.49-4.81,6.32,0,0,19.45-2.57,19.45-2.57,5.36,1.76,2.52,6.11-2.45,5.16-2.98,2.07-8.86.64-11.09,2.81-24.31,3.43,12.34-3.79,4.73,5.55-8.49.14-14.94,4.14-1.32,1.23,4.09,2.04,1.12,5.14-2.48,5.68,5.74,7.18-2.92,11.7-11.14,10.29.45,1.94.98,5.67,4.23,4.49,7.54-2.34,10.3-1.38,8.27,2.87,6.22.43,6.59,4.67.46,5.72,3.17-.07,9.24,1.01,5.84,4.76-7.2,1.45-8.41,2.28-3.62,2.49,11.31,13.93-13.33,15.68-22.87,19.51-9.14,1.68-60.78,30.47-52.34,14.14,5.84,2.14,10.11-6.12,2.63-3.21-24.72,9.66-48.26,28.18-68.5,45.07-1.88-7.85,16.18-9.95,8.49-15.61,3.51-5.73,17.25-18.12,22.92-16.07,1.43.91-9.94,5.82-10.43,9.25,5.42,1.76,11.92-7.54,17.4-9.86,3.89-1.97,11.82-6.89,15.51-9.31,25.58-16.31-12.11,1.62-19.28,8.82-4.28-7.63,50.36-29.31,16.38-19.31-16.33,10.19-32.73,21.94-48.49,33.09-5.9,3.77-40.07,33.04-23.79,15.49,18.91-17.88,50.86-38.49,73.46-51.9,2.64-1.99,18.17-7.78,10.33-9.52-3.48,4.17-12.73,7.38-18.01,7.68-2.51-3.97,9.39-4.28,11.73-8.85,3.03-5.38,7.86,2.21,10.62-8.13-8.27,2.11-17.08,8.48-22.84,10.43-.22-5.14,14.51-11.4,18.69-11.87,4.48-1.85-3.22-4.1-6.31-1.07-3.06,2.81-22.1,11.37-10.76,3.98-1.05-6.03-1.6-11.37,3.35-2.84,2.12-.85,11.24-8.03,15.31-9.37.75-.56,1.24-3.13-.03-2.75-1.45.5-3.73,1.47-3.91-1.02.16-3.38,11.04-3.88,7.78-6.74-1.91-1.68-4.65,3.43-11.71,4.05-2.95-3.23,22.08-12.75,26.66-15.48,13.22-11.06-47.61,20.58-52.74,22.22-7-4.3,3.72-5.06,6.66-6.11,5.09-1.78,11.57-10.6,13.78-11.45.94.22,2.08,4.17,12.96-2.17-1.78-.71-3.87-2.43-2.97-3.8,5.55-5.01,13.03-4.73,4.27-8.62,13.09-9.4,2.39,3.51,10.96-.6,2.12-3,4.9-6.32,8.94-7.63-8.44-11.62-5.45,5.78-12.76-.2-7.67,2.86-.4-2.58-4.06-5.97,6.16-.32,7.36-1.47,13.41-4.16-5.36-2.31-10.66,3.38-15.75,2.55-2.9-3.03,8.96-5.56,11.27-12.46-17.92,2.04-3.21-1.37.29-5.71-3.34-.93-5.27.07-7.11,2.18-6.48-4.38,9.46-2.37,7.56-8.22-2.8.32-9.39,4.37-10.81-.2,7.98-11.73.63,3.57,16.48-6.32-19.42-1.82,39.7-13.71,40.17-13.16Z"/>
          <g>
            <path class="st110" d="M1142.23,449.67c-.42,1.38-6.9,2.69-10.09,1.03,1.47.27,11.63-6.62,10.09-1.03Z"/>
            <path class="st110" d="M1160.19,414.62c.91,2.64-3.43,2.2-4.21.42.1-1.2,3.09-2.35,4.21-.42Z"/>
            <path class="st110" d="M1143.12,500.32l-9.16,2.25c.66-2.56,7.17-1.66,9.16-2.25Z"/>
            <path class="st110" d="M1137.99,496.59c1.08-.27,2.52,1.24,1.47,2.06-1.7,1.09-3.94-.71-1.47-2.06Z"/>
            <path class="st110" d="M1155.08,409.65c1.21-.57,2.63.86,1.5,1.78-.99.85-3.48-.62-1.5-1.78Z"/>
            <path class="st110" d="M1146.68,452.36c.21.86-2.85,1.33-2.96-.17-.06-.83,2.55-1.5,2.96.17Z"/>
            <path class="st110" d="M1145.44,411.14c1.48-.57,1.54,1.29.9,1.88-1.22.92-2.47-1.18-.9-1.88Z"/>
            <path class="st110" d="M1152.08,411.35l-2.03,1.09c-3.12-.37-1.13-2.45,2.03-1.09Z"/>
            <path class="st110" d="M1146.53,489.87c-3.1.32-2.07-1.87.58-1.61.57.16.83,1.54-.58,1.61Z"/>
            <path class="st110" d="M1153.67,390.17c.53-.44,2.66-.44,2.07.93-.69,1.02-2.94.48-2.07-.93Z"/>
            <path class="st110" d="M1159.7,410.4c.23-.23.99-.32,1.62-.14,1.35,1.25-3.15,2.47-1.62.14Z"/>
          </g>
        </g>
        <g>
          <path class="st110" d="M1213.51,375.77c4.29.17,14.7,1.05,17.45.72-4.77,25.42,13.68,118.49-8.18,121.04-.81-2.93,5.88-1.27,6.34-1.22-29.05-5.97-57.79,1.86-84.61,3.47,4.24-2.53.46-1.32.91-5.15,3.77-1.86,2.63,1.73,4.66,4.03-2.42-8.07,7.73-4.29,9.3-7.89-1.62-6.53-7.5-8.52-14.36-4.83-14.51,2.53,10.67-6.75,15.84-7.02-8.17-4.83-14.64,3.18-17.42-1.13,13.33-3.02,18.5-9.72,1.67-3.61-.7.47-2.32-1.04-1.88-1.73,1.12-3.55,9.87-.55,10.73-5.34-7.76,2.15-14.12,3.1-13.8-5.33,1.64-1.66,5.26,1.09,5.96.2,1.74-3.23,6.23-1.36,8.46-4.43-2.46-1.16-3.14-2.16-3.11-4.5-5.26-3.65,5.19-.43,4.25-4.95-11.55,4.61-14.22-4.37.29-3.79.62.09.45-1.83-.26-2.25-1.89-1.1-12.98,3.13-13.27-1.07s7.56-.8,8.99-2.57c4.84-2.63,11.21-.81,15.41-3.82-2.98-4.28-31.25,6.91-21.59-1.41-6.85-.2-7.75-6.16.56-3.35,2.96-5.25,9.57-1.16,13.84-5.19,4.17-7.91,3.45,1.48,7.48-2.81-4.72-4.27,8.72-6.82-2.72-7.1.19-3.53-3.75-6.89-.28-10.16,3.41-2.63,18.48-1.53,8.48-3.85-3.23-1.39-14.22,2-12.86-2.93,8.27-2.24,6.45-6.48-.99-7.16,18.94-8.76-1.47-2.72-6.95-7.89-41.83.61,49.12-10.82,61.68-6.98Z"/>
          <path class="st111" d="M1228.72,474.24c-.02-27.42-.1-61.97-.12-89.51,3.4-7.6,1.4,134.7.12,89.51Z"/>
          <path class="st111" d="M1229.25,383.33c-.83-.12-1.22-2.06-.49-2.99.99.16,2.15,1.91.49,2.99Z"/>
        </g>
        <path class="st54" d="M768.06,766.82c-.19,30.59-7.53,61.71-10.17,89.59,1.24-1,18.7-22.47,17.83-14.97,0,0-18.83,21.31-18.83,21.31-.58-3.67-7.84,6.57-8.69,6.6-3.53,1.75-3.95,1.1-2.82,4.26-5.05,1-7.49,10.23-12.99,13.16-6.03,5.79-11.3,13.63-18.5,20.37-3.16-5.64-4.96,1.83-6.7,4.01,1.73,5.9-1.53,2.65-3.96,0,3.32-2.68,4.6-8.74,7.56-11.9.11-1.63-1.53-3.86-.17-5.67,4.48.22,9.12-5.5,7.73-9.64,8.77-7.14,11.77-22.08,18.41-30.03-2.56-3.92,4.47-6.33-.21-9.42-4.25-4.05,7.82-8.22.55-14.98,8.06-3.64,5.06-9.87,10.4-16.01,4.77-3.19,5.83-7.56,9.26-12.51.74-7.49,5.68-14.51,5.7-21.6.18-3.42,3.51-17.7,5.59-12.56Z"/>
        <g>
          <path class="st85" d="M723.13,733.53c-26.55,35.14-4.64,2.45-3.46,24.86,17.13-1.51,13.05-10.08,19.06-5.03,7.61,1.68,19.01,4.89,27.84,10.1,8.19,3.79-58.27,78.29-39.03,44.54-12.58,10.15-13.46,22.89-27.5,34.47-16.2,18.65-10.71-.98.35-8.64-11.55,6.23-68.77,77.19-67.44,55.17-2.14,1.37-6.73,1.01-8.36,3.87-4.77,9.67-25.39,16.54-10.08,1.28,2.02-2.22,3.09-5.08,3.23-8.6-2.87,3.31-8.26,4.32-6.46-1.27-6.36.05-17.21,11.55-15.3-.78-.22-1.69-.88-4.07-1.33-1.48-16.24,7.38-.09-6.73,2.99-10.69,3.43-.72,3.64,5.51-.31,4.84,2.3,5.02,5.72-.09,7.67-3.15-4.05-4.01-3.84-7.23,1.02-10.62,2.93-4.39,11.56-13.8,19.56-17.76,1.48-3.69,3.3-4.51,5.46-2.46,1.7-2.59,9.65-11.3,5.94-10.52-11.25,9.6.46-7.78,5.04-9.64,2.62-.47,1.96,1.17,1.08,3.03,2.11,4.78,7.78-4.04,12.07-5.27-12.73-10.75,27.44-40.6,33.38-50.89,2.72-3.67,41.82-48.25,34.55-35.37Z"/>
          <g>
            <path class="st41" d="M616.37,850.3c5.08-7.59,24.85-29.01,27.12-15.92-4.69-.43-8.44-.99-4,3.66-4.64-2.13-5.71,6.75-8.93,5.53-.68-.25-1.13-.79-2.1-1.52-1.62,6.92-6.69,4.01-6.99,7.03,3.48,3.23,1.56,5.47-1.17,1.26-1.07,2.33-2.98,2.27-3.93-.04Z"/>
            <path class="st41" d="M642.04,822.03c.04-4.82,19.52-17.47,11.19-9.1,2.46,1.25,1.9,2.75,1.62,4.81,1.3,1.26,3.95.94,2.39,3.1-9.73,3.68-15.19,13.49-15.19,1.19Z"/>
            <path class="st41" d="M597.66,871.34l4.7-5.22c-.18,3.83,3.27-3.66,4.69,1.23,5.47-4.51,1.75,3.54-3.07,1.1,7.78,6.91-8.51,17.4-7.82,6.31,2.8.15,3.4-.16,1.5-3.43Z"/>
            <path class="st41" d="M606.04,862.41c3.26-.34,3.56-4.18,6.91-4.42-1.53,2.27-3.8,8.6-6.91,4.42Z"/>
            <path class="st41" d="M649.54,875.1c-.49,2.41-4.37,5.17-6.44,6.72-4.68.44,5.75-8.11,6.44-6.72Z"/>
            <path class="st41" d="M628.8,875.64c-.81,2.3-1.94,3.62-3.47,3.28-1.96-1.01,2.38-4.9,3.47-3.28Z"/>
            <path class="st41" d="M616.35,853.95c.11,1.92-1.68,4.2-3.04,2.83-.25-.9,2.04-5.28,3.04-2.83Z"/>
            <path class="st41" d="M660.29,866.93c-.78.23-.86-1.67-.26-3.02,2.07-2.48,3.45,1.96.26,3.02Z"/>
            <path class="st41" d="M663.89,854.77c-1.33.25-1.13-1.88-.59-2.3,2.43-2.01,4.75,1.7.59,2.3Z"/>
            <path class="st41" d="M640.46,885.27c-1.43.63-3.8,1.4-2.47-.51.45-1.7,5.41-1.64,2.47.51Z"/>
            <path class="st41" d="M615,859.94c-.05,1.5-1.6,1.66-2.13.74-.51-1.31,4.2-3.21,2.13-.74Z"/>
            <path class="st41" d="M659.91,856.66c1.79-1.34,2.06,2.22.53,2.07-.85-.06-1.72-1.26-.53-2.07Z"/>
            <path class="st41" d="M665.38,860.35c.24,1.91-2,1.91-1.76,0,.15-1.18,1.61-1.18,1.76,0Z"/>
          </g>
        </g>
        <path class="st72" d="M814.03,798.33c-.8-.39-20.42,25.98-17.4,16.97,0,0,3.79-4.5,3.79-4.5-1.57-1.1,5.17-7.88,6.8-9.85-14.96-2.49-23.25-24.19-35.44-33.74-2.06-5.68,29.69,18.47,35.47,22.46,2.85,2.04,5.72,4.28,9.66,2.07.08.72-8.07,8.99-2.86,6.6Z"/>
        <path class="st11" d="M796.62,815.3c-2.36,10.95-27.26,28.79-33.83,38.18-10.61,13.57-6.81-3.66-5.72-11.94-.72-5.98,7.34-9.82,3.49-16.53,5.32-9.4,1.43-21.1,4.57-31.43.29-11.14-1.17-18.38,2.92-26.78.19,5.84.28,12.38,3.29,17.69,6.89,53.5-10.79,73.81,25.27,30.8Z"/>
        <g>
          <path class="st41" d="M756.89,862.75c-61.05,68.51-123.98,140.95-189.55,204.91-68.73,66.85-167.17,104.34-260.35,92.13,0,0-.25-110.23-.25-110.23-5.07-16.8,6.08-11.2,18.01-10.83,21.08,1.09,42.57-.04,63.01-5.2,84.98-18.39,144.35-89.33,199.94-150.98,1.72,1.76,2.44-1.03,3.31-1.87.56-.33,2.04,1.4,3.22-.3-2.85-.39-.75-2.71.23-3.16,4.64,2.55,1.62,11.19,3.78,11.36,0,0,4.11-5.04,4.11-5.04,5.29,4.69,16.95-8.53,9.9,3.52,5.49-.97,6.05-7.47,8.47-4.5-1.92,3.93-.59,7.13-5.55,13.02-3.94,1.25-7.33,9.48-.51,5.7,1.53-1.92,2.83-7.85,6.38-5.21,2.6-7.29,9.33-8.79,15.97-8.43-7.34,5.73-5.69,9.51,4.51.77,18.14-14.32,32.59-34.25,50.43-48.67,5.25-4.35,11.15-12.36,16.75-14.52-4.36,6.81-12.69,16.09-18.74,22.29,3.94,4.82,9.04-8.25,12.76-9.74,5.65-4.47,7.6-12.08,13.95-16.28-2.56-1.37-3.81-1.82-1.82-3.93,8.74-8.82,28.84-24.25,9.52-3.86.22.69.58,1.51,1.99,1.95,10.6-12.86,26.57-23.56,32.71-40.26,11.91-18.33,3.41,6.68,2.42,16-5.09,14.36-13.29,26.1-21.78,38.39,2.01,17.54-5.31,34.65-15.99,50.27-3.54,3.88-4.25,10.86-8.98,14.34-3.02-.44-3.87,1.29-2.55,5.19-4.92,7.53-5.48,8.84-1.68,3.95,12.79,2.72,38.2-48.56,46.37-40.8Z"/>
          <path class="st111" d="M670.09,960.16c-70.25,80.37-147.82,168.54-255.08,194.79-139.79,24.46-105.3,12.75-109.01-105.7,3.52-39.57.59,108.22,1.51,103.39-3.28,18.82,79.9,3.6,93.12,2.49,116.05-17.65,195.28-118.56,269.45-194.96Z"/>
          <path class="st85" d="M717.89,825.13c.23-1.95,1.55-2.97,3.07-2.84-.69,1.66-1.18,2.34-3.07,2.84Z"/>
        </g>
        <path class="st11" d="M800.41,810.8c-3.22-1.64-.59-1.57,1.34-2.13-4.65-.8-5.05-3.25-8.52-5.94-3.48-2.27-1.37-9.36-5.82-13.27-4.87-7.04-10.69-15.53-15.65-22.25,13.79,7.92,22.82,31.68,38.15,33.1,0,0-9.5,10.49-9.5,10.49Z"/>
        <g>
          <path class="st88" d="M1240.01,496.42c9.4,30.59-43.51-11.65-126.1,24.92-.84-.38-9.88,5.92-8.1,1.06,17.51-28.5,88.44-26.32,125.45-23.83,6.63-29.6-10.59-114.17,6.93-127.98,5.37-4.07.05,124.84,1.82,125.84Z"/>
          <path class="st93" d="M1240.5,369.72l-.49,126.7c.97-2.56-2.11-131.51.49-126.7Z"/>
          <path class="st43" d="M1112.77,520.27c-.2.55-2.14-.29-1.96-1.5.1-.65,2.63-.38,1.96,1.5Z"/>
        </g>
        <g>
          <path class="st109" d="M445.66,1000.08c-4.32,3.83,3.2,2.66.81,7.08,4.09.72,11.59-9.63,12.72-1.85-36.93,23.68-133.01,55.77-164.33,21.35,55.61-4.01,94.79,5.26,150.79-26.57Z"/>
          <path class="st47" d="M350.99,1026.01c-17.51,3.46-37.71-2.54-55.4-.1,11.89-8.06,40.45,2.32,55.4.1Z"/>
          <path class="st42" d="M444.1,1007.2c-.98.15-2-1.5-1.53-1.94,1.17-1.15,3.14,1.48,1.53,1.94Z"/>
          <path class="st42" d="M441.93,1013.32c-.81,1.53-2.52,1.67-3.85,2.32.29-2.21,2.63-1.63,3.85-2.32Z"/>
        </g>
      </g>
    </g>
  </g>
</svg>