<?xml version="1.0" encoding="UTF-8"?>
<svg id="_圖層_1" data-name="圖層_1" xmlns="http://www.w3.org/2000/svg" version="1.1" viewBox="0 0 1536 1536">
  <!-- Generator: Adobe Illustrator 30.3.0, SVG Export Plug-In . SVG Version: 2.1.3 Build 182)  -->
  <defs>
    <style>
      .st0 {
        fill: #0b080a;
      }
    </style>
  </defs>
  <path class="st0" d="M147,415v707s162.12,88.36,317,25c88-36,106-62,131-92,87.41-104.89,173-189,173-189l197,215s189.67,183,370.33-25c24.81-28.56,40.85-77.34,50.82-135.65-.82-199.69-2.15-505.35-2.15-505.35,0,0-166.41-106.22-368.23-1.44-81.95,42.55-140.77,121.44-254.59,253.27,0,0-201.18-231.16-235.51-247.47-40.05-19.02-148.76-93.6-314.67-31.36-34.96,13.11-64,27-64,27Z"/>
</svg>